<svg id="Camada_1" data-name="Camada 1" xmlns="http://www.w3.org/2000/svg" viewBox="0 0 90 90"><defs><style>.cls-1{fill:#ba19ff;}</style></defs><title>icones-delete</title><path class="cls-1" d="M34.85.28A5.57,5.57,0,0,0,32,2.4c-.9,1.35-1,2.21-1,5.67V11.2l-9.09.05-9.11.06-1,.45A5.68,5.68,0,0,0,9,14.54c-.46,1-.46,1-.46,5.12s0,4.15.46,5.11A5.79,5.79,0,0,0,13.3,28l.76.11V54c0,28.88-.07,27.1,1.26,29.8A11.44,11.44,0,0,0,23,89.71c1.82.39,42.28.39,44.1,0a11.44,11.44,0,0,0,7.63-5.9c1.33-2.7,1.26-.92,1.26-29.8V28.13L76.7,28A5.77,5.77,0,0,0,81,24.77c.46-1,.46-1,.46-5.11s0-4.15-.46-5.12a5.65,5.65,0,0,0-2.78-2.78l-1-.45-9.09-.06-9.09-.05,0-3.46C59,4.43,59,4.24,58.52,3.29A5.6,5.6,0,0,0,55.75.51l-1-.45L45.27,0C36.49,0,35.7,0,34.86.28ZM52.14,6.05c1,.77,1.21,1.18,1.26,3.25l.08,1.92H36.56V9.57c0-1.8.16-2.41.76-3.08.8-.88,1-.9,7.89-.85C51.42,5.68,51.68,5.7,52.14,6.05ZM74.64,17.3a2.49,2.49,0,0,1,1.21,2.36A2.48,2.48,0,0,1,74.64,22c-.47.37-.51.37-29.25.42-19.85,0-29,0-29.43-.14a2.82,2.82,0,0,1-1.25-4.41c.93-1.09-1.09-1,30.5-1C74.15,16.93,74.17,16.93,74.64,17.3ZM70.28,54.06l0,26-.46,1A5.65,5.65,0,0,1,67,83.81l-1,.45H24l-1-.45A5.65,5.65,0,0,1,20.23,81l-.46-1-.05-26,0-26H70.32l0,26Z"/><path class="cls-1" d="M29.8,39.59a3,3,0,0,0-1.59,1.92c-.05.32-.07,8.4-.05,18,.05,17.3.05,17.44.42,17.91a2.5,2.5,0,0,0,2.36,1.22,2.48,2.48,0,0,0,2.35-1.22c.37-.47.37-.58.37-18.39s0-17.91-.37-18.38a4.24,4.24,0,0,0-.81-.83A3.25,3.25,0,0,0,29.8,39.59Zm14.06,0a3.08,3.08,0,0,0-1.59,1.92c-.05.32-.06,8.4-.05,18,.05,17.3.05,17.44.42,17.91a2.89,2.89,0,0,0,4.72,0c.37-.47.37-.58.37-18.39s0-17.91-.37-18.38a4.6,4.6,0,0,0-.82-.83A3.24,3.24,0,0,0,43.86,39.59Zm14,0a3.85,3.85,0,0,0-1,.92l-.51.65V59.05c0,17.79,0,17.9.37,18.37a2.88,2.88,0,0,0,4.71,0c.37-.47.37-.58.37-18.39s0-17.91-.37-18.38a4.24,4.24,0,0,0-.81-.83A3.31,3.31,0,0,0,57.9,39.59Z"/></svg>