<svg id="Camada_1" data-name="Camada 1" xmlns="http://www.w3.org/2000/svg" viewBox="0 0 90 90"><defs><style>.cls-1{fill:#dba4ff;}</style></defs><title>icones-like2</title><path class="cls-1" d="M1.31,35.61V33c.06-.4.14-.8.17-1.2C2,25.71,3.72,20.2,8,15.73A23.54,23.54,0,0,1,19.58,8.8,24.06,24.06,0,0,1,33,9.12,17.74,17.74,0,0,1,44.48,19.65a4.1,4.1,0,0,0,.6.85,4.14,4.14,0,0,0,.62-.84,16.51,16.51,0,0,1,4.63-6.58,20.68,20.68,0,0,1,13-4.82C70.1,8,76.27,10,81.13,14.89c7.27,7.33,9,16.47,6.5,26.41-1.55,6.3-5.07,11.56-9.28,16.36A95.42,95.42,0,0,1,65.61,70a92.39,92.39,0,0,1-13.37,9.18c-2,1.09-4.21,1.92-6.32,2.87H44.28A48.15,48.15,0,0,1,39,79.71a84.25,84.25,0,0,1-8.61-5.5c-4-3-7.91-6.2-11.69-9.51A74.17,74.17,0,0,1,7,51.05a29.74,29.74,0,0,1-4.39-9.19C2,39.82,1.73,37.69,1.31,35.61Z"/></svg>