<svg id="Camada_1" data-name="Camada 1" xmlns="http://www.w3.org/2000/svg" viewBox="0 0 90 90"><defs><style>.cls-1{fill:#5fea4b;}</style></defs><title>icones-user2</title><path class="cls-1" d="M83.16,74.16A53.09,53.09,0,0,1,60.6,86.78c-19.94,5.29-37.78,1.11-53.46-12.3a3.06,3.06,0,0,1-.3-.32A7.1,7.1,0,0,1,8.49,72a48.66,48.66,0,0,1,20-13.49A47.56,47.56,0,0,1,40.2,55.92a49.47,49.47,0,0,1,20.4,2.24A48,48,0,0,1,81.42,71.91,6.75,6.75,0,0,1,83.16,74.16Z"/><path class="cls-1" d="M67.41,23.56C67.72,35.64,57.34,46.08,44.91,46A22.71,22.71,0,0,1,22.52,23.36,22.59,22.59,0,0,1,45.1,1,22.3,22.3,0,0,1,67.41,23.56Z"/></svg>