<svg id="Camada_1" data-name="Camada 1" xmlns="http://www.w3.org/2000/svg" viewBox="0 0 96 96"><defs><style>.cls-1{fill:#ffc107;}.cls-2{fill:#ff3d00;}.cls-3{fill:#4caf50;}.cls-4{fill:#1976d2;}</style></defs><title>icon-google</title><path class="cls-1" d="M87.22,40.17H84V40H48V56H70.61a24,24,0,1,1-6.69-25.92L75.24,18.76A40,40,0,1,0,88,48,40.37,40.37,0,0,0,87.22,40.17Z"/><path class="cls-2" d="M12.61,29.38,25.75,39a24,24,0,0,1,38.17-8.94L75.24,18.76A39.93,39.93,0,0,0,12.61,29.38Z"/><path class="cls-3" d="M48,88A39.82,39.82,0,0,0,74.82,77.62L62.44,67.14a23.94,23.94,0,0,1-37-11l-13,10A40,40,0,0,0,48,88Z"/><path class="cls-4" d="M87.22,40.17H84V40H48V56H70.61a24.16,24.16,0,0,1-8.18,11.14h0L74.82,77.61C73.94,78.41,88,68,88,48A40.37,40.37,0,0,0,87.22,40.17Z"/></svg>