<svg id="Camada_1" data-name="Camada 1" xmlns="http://www.w3.org/2000/svg" viewBox="0 0 90 90"><defs><style>.cls-1{fill:#ba19ff;}.cls-2{fill:#e6b6ff;}</style></defs><title>icones-send</title><path class="cls-1" d="M2,35.24C2,28,3.18,20.91,3.62,13.75c.28-4.39,2-3.73,4.93-2.48C19.2,15.78,30,20.19,40.71,24.66q22,9.17,44,18.37c.93.38,1.8.91,3.34,1.71C82.54,48,77,49.85,71.58,52.09,50.29,61,28.94,69.75,7.73,78.76c-4,1.71-4.88,1.13-4.88-3,0-7-.56-14.05-.88-21.07a26.54,26.54,0,0,0,3.09,0l47.53-6c8.29-1.06,16.58-2.25,24.87-3.38A212.84,212.84,0,0,0,53.61,41.6Z"/><path class="cls-2" d="M2,35.24,53.61,41.6a213.43,213.43,0,0,1,23.87,3.87L52.6,48.85q-23.76,2.88-47.54,5.8a26.55,26.55,0,0,1-3.09,0A37.79,37.79,0,0,0,2,35.24Z"/></svg>