<svg id="Camada_1" data-name="Camada 1" xmlns="http://www.w3.org/2000/svg" viewBox="0 0 90 90"><defs><style>.cls-1{fill:#ba19ff;}.cls-2{fill:#e6b6ff;}</style></defs><title>icones-comment</title><path class="cls-1" d="M7.07,1.12H83s.07.14.12.16C87.19,2.36,89,4.69,89,8.9v54a9.72,9.72,0,0,1-.28,2.58c-.89,3.23-3.54,5.09-7.28,5.09q-29.22,0-58.44,0a2.64,2.64,0,0,0-1.92.74Q11.51,79.81,1.89,88.31c-.27.23-.5.53-.89.57V7c.36-.23.29-.64.4-1a7,7,0,0,1,4.5-4.5C6.29,1.37,6.76,1.48,7.07,1.12ZM28.79,35.83a4.59,4.59,0,1,0-4.56,4.66A4.6,4.6,0,0,0,28.79,35.83Zm20.82.06A4.59,4.59,0,1,0,45,40.49,4.6,4.6,0,0,0,49.61,35.89Zm11.65-.06a4.59,4.59,0,1,0,4.61-4.59A4.61,4.61,0,0,0,61.26,35.83Z"/><path class="cls-2" d="M31.22,35.66a7.42,7.42,0,1,1-7.46-7.43A7.45,7.45,0,0,1,31.22,35.66Z"/><path class="cls-2" d="M52.59,35.66a7.42,7.42,0,1,1-7.46-7.43A7.45,7.45,0,0,1,52.59,35.66Z"/><path class="cls-2" d="M74,35.66a7.42,7.42,0,1,1-7.46-7.43A7.45,7.45,0,0,1,74,35.66Z"/></svg>