<svg id="Camada_1" data-name="Camada 1" xmlns="http://www.w3.org/2000/svg" viewBox="0 0 90 90"><defs><style>.cls-1{fill:#ba19ff;}</style></defs><title>icones-email</title><path class="cls-1" d="M34.66,44.11c6.09,6.08,14.39,6.08,20.47,0q13.32-13.29,26.6-26.6c.4-.39.78-.81,1.41-1.48H6.65c.59.63.93,1,1.29,1.36Q21.29,30.76,34.66,44.11Z"/><path class="cls-1" d="M60.52,51.15c-.89-.91-1.35-.82-2.27-.07A20.73,20.73,0,0,1,31.44,51c-.91-.76-1.34-.68-2.13.12C22.17,58.33,15,65.48,7.82,72.66,7.49,73,7,73.22,7,74H83.16c-.56-.63-.84-1-1.15-1.29C74.84,65.51,67.65,58.37,60.52,51.15Z"/><path class="cls-1" d="M24.06,46.11c1-1,.79-1.49-.09-2.36Q13.35,33.22,2.81,22.63c-.4-.4-.81-.77-1.49-1.41V68.33l.58.3a7.12,7.12,0,0,1,.75-1.15C9.77,60.34,16.88,53.19,24.06,46.11Z"/><path class="cls-1" d="M88.66,23.13c0-.5.16-1.18-.33-1.42s-.84.42-1.17.75C80,29.62,72.83,36.81,65.62,43.93c-.9.9-.73,1.32.07,2.12C72.85,53.15,80,60.29,87.1,67.41c.35.35.61.85,1.2.9.47-.46.36-1.06.36-1.61Q88.68,44.92,88.66,23.13Z"/></svg>