<svg id="Camada_1" data-name="Camada 1" xmlns="http://www.w3.org/2000/svg" viewBox="0 0 90 90"><defs><style>.cls-1{fill:#96a7af;}</style></defs><title>icones-user3</title><path class="cls-1" d="M83.47,74.4A53.48,53.48,0,0,1,60.73,87.12c-20.11,5.33-38.09,1.12-53.9-12.4a3.06,3.06,0,0,1-.3-.32,7.18,7.18,0,0,1,1.66-2.2A49,49,0,0,1,28.33,58.6,48.19,48.19,0,0,1,40.16,56a50,50,0,0,1,20.57,2.26,48.41,48.41,0,0,1,21,13.86A6.85,6.85,0,0,1,83.47,74.4Z"/><path class="cls-1" d="M67.59,23.38C67.91,35.56,57.44,46.09,44.91,46A22.89,22.89,0,0,1,22.34,23.18,22.77,22.77,0,0,1,45.1.64,22.48,22.48,0,0,1,67.59,23.38Z"/></svg>