<svg id="Camada_1" data-name="Camada 1" xmlns="http://www.w3.org/2000/svg" viewBox="0 0 90 90"><defs><style>.cls-1{fill:#ff575f;}.cls-2{fill:#623a42;}</style></defs><title>icones-password</title><path class="cls-1" d="M68.9,31.67H67.22c0-2.83,0-5.65,0-8.48A22.15,22.15,0,0,0,23,21.32c-.27,3.45-.08,6.9-.12,10.35H21.1A11.63,11.63,0,0,0,9.5,43.27V77.4A11.63,11.63,0,0,0,21.1,89H68.9A11.63,11.63,0,0,0,80.5,77.4V43.27A11.63,11.63,0,0,0,68.9,31.67ZM31.75,23.3c0-6.73,5.09-12.59,11.48-13.29A13.31,13.31,0,0,1,58,20.42a12,12,0,0,1,.3,2.88c0,2.79,0,5.58,0,8.37H31.75C31.75,28.88,31.74,26.09,31.75,23.3Z"/><path class="cls-2" d="M54.61,70.15l-5.77-9.57a6.84,6.84,0,0,0,2.85-5.45,6.64,6.64,0,0,0-13.28,0,6.71,6.71,0,0,0,2.84,5.43l-5.77,9.56a1.34,1.34,0,0,0,1.14,2H53.47A1.33,1.33,0,0,0,54.61,70.15Z"/></svg>