<svg id="Camada_1" data-name="Camada 1" xmlns="http://www.w3.org/2000/svg" viewBox="0 0 90 90"><defs><style>.cls-1{fill:#96a7af;}</style></defs><title>icones-feed_off</title><path class="cls-1" d="M70.62,89H19.38A15.65,15.65,0,0,1,3.75,73.4V16.6A15.65,15.65,0,0,1,19.38,1H70.62A15.65,15.65,0,0,1,86.25,16.6V73.4A15.65,15.65,0,0,1,70.62,89ZM19.38,6.1A10.51,10.51,0,0,0,8.88,16.6V73.4a10.51,10.51,0,0,0,10.5,10.5H70.62a10.51,10.51,0,0,0,10.5-10.5V16.6A10.51,10.51,0,0,0,70.62,6.1Z"/><rect class="cls-1" x="14.29" y="19.35" width="61.42" height="5.13" rx="1.5"/><rect class="cls-1" x="14.29" y="34.74" width="61.42" height="5.13" rx="1.5"/><rect class="cls-1" x="14.29" y="50.13" width="61.42" height="5.13" rx="1.5"/><rect class="cls-1" x="14.29" y="65.52" width="39.28" height="5.13" rx="1.5"/></svg>