<svg id="Camada_1" data-name="Camada 1" xmlns="http://www.w3.org/2000/svg" viewBox="0 0 90 90"><defs><style>.cls-1{fill:#ba19ff;}</style></defs><title>icones-edit</title><path class="cls-1" d="M71.25,80.06V56.58c0-2,.71-2.87,2.69-2.69,1.35.08,2.7,0,4,0a1.85,1.85,0,0,1,2.08,1.58,1.74,1.74,0,0,1,0,.51V84.71a4.15,4.15,0,0,1-4,4.31,2.68,2.68,0,0,1-.49,0H5.44A4.18,4.18,0,0,1,1,85.07V15.74c0-4.51,1.28-5.8,5.74-5.82H28.85c2.49,0,2.82.3,2.8,2.81,0,6.31.77,6-5.82,6h-16V80.06Z"/><path class="cls-1" d="M61.37,15.56l13,12.92c-.34.38-.79.9-1.27,1.35Q58.93,44.05,44.71,58.21a7.24,7.24,0,0,1-3.23,1.72c-3.68.9-7.41,1.61-11.13,2.38-2.94.6-3.32.22-2.7-2.69C28.42,55.83,29.12,52,30,48.23a5.82,5.82,0,0,1,1.35-2.69q14.6-14.7,29.26-29.31C60.89,16,61.21,15.7,61.37,15.56Z"/><path class="cls-1" d="M80.86,22.07c-4.22-4.22-8.25-8.22-12.14-12.31A1.89,1.89,0,0,1,69,8c2-2.1,4-4.17,6.11-6.11a2.83,2.83,0,0,1,4-.2,1.89,1.89,0,0,1,.2.2Q83.73,6.24,88,10.69a2.79,2.79,0,0,1,.24,3.94l-.1.11C85.88,17.21,83.48,19.46,80.86,22.07Z"/></svg>