<svg id="Camada_1" data-name="Camada 1" xmlns="http://www.w3.org/2000/svg" viewBox="0 0 90 90"><defs><style>.cls-1{fill:#96a7af;}</style></defs><title>icones-home2</title><path class="cls-1" d="M81.65,34.67a7.5,7.5,0,0,0-2.61-6L51.37,3.6a9.7,9.7,0,0,0-12.74,0L11,28.7a7.5,7.5,0,0,0-2.61,6A11.2,11.2,0,0,0,8,37.39V76.45c0,6.78,6.15,12.33,13.66,12.33h7.88a3.13,3.13,0,0,0,3.13-3.12V64.47A12.57,12.57,0,0,1,42.87,52,12.36,12.36,0,0,1,57.33,64.12V85.18a3.61,3.61,0,0,0,3.61,3.6h7.4C75.85,88.78,82,83.23,82,76.45V37.39A11.2,11.2,0,0,0,81.65,34.67Z"/></svg>