<svg id="Camada_1" data-name="Camada 1" xmlns="http://www.w3.org/2000/svg" viewBox="0 0 90 90"><defs><style>.cls-1{fill:#ba19ff;}</style></defs><title>icones-logout</title><path class="cls-1" d="M82.18,45c0,8.4,0,16.8,0,25.2,0,7.64-4.43,12-12,12q-15.87,0-31.75,0c-7.88,0-12.61-5.25-12-13.06.18-2.28,1.17-3.88,3.49-3.9s3.55,1.59,3.67,4.06c.25,5,1,5.69,6.05,5.7q14.84,0,29.68,0c4.62,0,5.71-1.1,5.72-5.7Q75,45,75,20.65C75,16.06,73.94,15,69.3,15q-15,0-30,0c-4.5,0-5.54,1-5.69,5.36-.08,2.54-.93,4.45-3.68,4.39s-3.45-2.13-3.51-4.58c-.21-7.6,4.35-12.36,12-12.38q15.87,0,31.75,0c7.6,0,11.93,4.33,12,12C82.24,28.2,82.18,36.6,82.18,45Z"/><path class="cls-1" d="M53.69,48.55H35.83c-7.7,0-15.4,0-23.11,0-2.57,0-4.87-.49-4.92-3.47-.06-3.21,2.37-3.69,5.06-3.68,12.53,0,25.06,0,37.59,0H55c-3.1-3.15-5.53-5.61-8-8.06-.73-.74-1.93-1.38-2.09-2.22-.3-1.61-.59-3.74.23-4.85.59-.8,3.61-1,4.42-.25,5.81,5.39,11.43,11,16.8,16.83.75.81.4,3.8-.52,4.78-5.07,5.48-10.46,10.67-15.77,15.93-1.62,1.6-3.52,1.91-5.19.24s-1.4-3.8.28-5.49c3-3,6.05-5.89,9.08-8.83Z"/></svg>