<svg id="Camada_1" data-name="Camada 1" xmlns="http://www.w3.org/2000/svg" viewBox="0 0 90 90"><defs><style>.cls-1{fill:#5fea4b;}</style></defs><title>icones-home1</title><path class="cls-1" d="M81.83,34.62a7.52,7.52,0,0,0-2.62-6L51.4,3.39a9.76,9.76,0,0,0-12.8,0L10.79,28.62a7.52,7.52,0,0,0-2.62,6,10.83,10.83,0,0,0-.35,2.74V76.61C7.82,83.42,14,89,21.55,89h7.92a3.14,3.14,0,0,0,3.14-3.14V64.57A12.62,12.62,0,0,1,42.86,52,12.42,12.42,0,0,1,57.39,64.21V85.38A3.63,3.63,0,0,0,61,89h7.43C76,89,82.18,83.42,82.18,76.61V37.36A10.83,10.83,0,0,0,81.83,34.62Z"/></svg>