<svg id="Camada_1" data-name="Camada 1" xmlns="http://www.w3.org/2000/svg" viewBox="0 0 90 90"><defs><style>.cls-1{fill:#ba19ff;}</style></defs><title>icones-feed</title><path class="cls-1" d="M70.67,89.12H19.33A15.68,15.68,0,0,1,3.67,73.46V16.54A15.68,15.68,0,0,1,19.33.88H70.67A15.68,15.68,0,0,1,86.33,16.54V73.46A15.68,15.68,0,0,1,70.67,89.12ZM19.33,6A10.53,10.53,0,0,0,8.81,16.54V73.46A10.53,10.53,0,0,0,19.33,84H70.67A10.53,10.53,0,0,0,81.19,73.46V16.54A10.53,10.53,0,0,0,70.67,6Z"/><rect class="cls-1" x="14.23" y="19.3" width="61.54" height="5.14" rx="1.5"/><rect class="cls-1" x="14.23" y="34.72" width="61.54" height="5.14" rx="1.5"/><rect class="cls-1" x="14.23" y="50.14" width="61.54" height="5.14" rx="1.5"/><rect class="cls-1" x="14.23" y="65.56" width="39.36" height="5.14" rx="1.5"/></svg>