<svg id="Camada_1" data-name="Camada 1" xmlns="http://www.w3.org/2000/svg" viewBox="0 0 90 90"><defs><style>.cls-1{fill:#96a7af;}</style></defs><title>icones-eye2</title><path class="cls-1" d="M57.58,47.5c-2.79.36-5.42.67-8,1.07-.26,0-.61.68-.61,1,0,2.86,0,5.72,0,8.58a3.86,3.86,0,0,1-5,3.93,3.77,3.77,0,0,1-2.7-3.75c0-2.85-.05-5.71,0-8.57,0-1-.31-1.25-1.25-1.34-2.46-.24-4.91-.61-7.49-.95l-2.15,8c-.15.56-.28,1.13-.48,1.67A3.83,3.83,0,0,1,22.52,55c.81-3.16,1.67-6.31,2.52-9.5L17,42.14l-2.38,4.11C13.78,47.61,13,49,12.2,50.33c-1.28,2.16-3.56,2.86-5.49,1.7A3.89,3.89,0,0,1,5.52,46.5c1.54-2.69,3.1-5.37,4.59-8-2.66-2-5.28-4-7.84-6a4,4,0,0,1-1.22-1.65,2.22,2.22,0,0,1,.78-2.57,2.63,2.63,0,0,1,3-.2c4.15,2,8.23,4.07,12.48,5.79C26.74,37.71,36.5,40,46.72,39.7a75,75,0,0,0,26.6-6.05c4.05-1.67,8-3.68,11.9-5.57a2.56,2.56,0,0,1,2.91.12A2.18,2.18,0,0,1,89,30.74a3.52,3.52,0,0,1-1.11,1.58c-2.29,1.77-4.63,3.48-6.95,5.21-.33.24-.68.46-1.09.75l4.65,8.08c1.3,2.26.83,4.57-1.17,5.71s-4.17.42-5.46-1.8c-1.59-2.71-3.15-5.44-4.75-8.21L65,45.4l.86,3.26c.52,2,1.05,3.92,1.56,5.88.66,2.49-.36,4.53-2.55,5.14S60.7,59.06,60,56.5C59.18,53.51,58.39,50.52,57.58,47.5Z"/></svg>