<svg viewBox="0 0 48 48" xml:space="preserve" xmlns="http://www.w3.org/2000/svg"><path d="M6 45.414V36H3c-1.654 0-3-1.346-3-3V7c0-1.654 1.346-3 3-3h42c1.654 0 3 1.346 3 3v26c0 1.654-1.346 3-3 3H15.414L6 45.414zM3 6a1 1 0 0 0-1 1v26a1 1 0 0 0 1 1h5v6.586L14.586 34H45a1 1 0 0 0 1-1V7a1 1 0 0 0-1-1H3z" fill="#808080" class="fill-000000"></path><circle cx="16" cy="20" r="2" fill="#808080" class="fill-000000"></circle><circle cx="32" cy="20" r="2" fill="#808080" class="fill-000000"></circle><circle cx="24" cy="20" r="2" fill="#808080" class="fill-000000"></circle></svg>