<svg xmlns="http://www.w3.org/2000/svg" viewBox="0 0 500 500"><g id="freepik--Floor--inject-2"><path id="freepik--floor--inject-2" d="M89.09,165.14C-1.23,217.29-1.23,301.84,89.1,354s236.78,52.15,327.1,0,90.32-136.7,0-188.85S179.42,113,89.09,165.14Z" style="fill:#f5f5f5"></path></g><g id="freepik--Plants--inject-2"><g id="freepik--plants--inject-2"><path d="M431.47,303.68l-7.39-4.27s-4.4-18.29-2.65-34.74c2.47-23.12,17.69-31.82,23.48-29.83s7.46,8.72-2.11,22.5C437.14,265.47,430.2,282.39,431.47,303.68Z" style="fill:#A75EFD"></path><g style="opacity:0.65"><path d="M431.47,303.68l-7.39-4.27s-4.4-18.29-2.65-34.74c2.47-23.12,17.69-31.82,23.48-29.83s7.46,8.72-2.11,22.5C437.14,265.47,430.2,282.39,431.47,303.68Z" style="fill:#fff"></path></g><path d="M428.41,294.7h.07a.52.52,0,0,0,.41-.6c-4.06-21.33,3.4-45.3,12.62-55.28a.51.51,0,1,0-.75-.69c-9.4,10.15-17,34.51-12.88,56.16A.53.53,0,0,0,428.41,294.7Z" style="fill:#fff"></path><path d="M450.07,314.42c1.11.56,4.05-1.95,4.86-2.57a10.1,10.1,0,0,0,3.21-4.08,9.61,9.61,0,0,0,.57-5.8,22.43,22.43,0,0,0-.89-3l-1-2.94a7.5,7.5,0,0,1-.59-3c.16-2,1.89-3.57,3.47-4.88,1.75-1.45,3.55-3.34,3.41-5.79a8.63,8.63,0,0,0-2.41-5c-1.25-1.43-2.7-2.67-3.84-4.18a6,6,0,0,1-1.43-3.74,6.44,6.44,0,0,1,.71-2.42,33,33,0,0,0,2.36-4.91c.51-1.74.32-3.87-1.08-5a5.63,5.63,0,0,0-4.27-.83,9.68,9.68,0,0,0-3.85,1.58c-3.78,2.35-5.76,7.07-9.81,8.95a41.16,41.16,0,0,1-4.93,1.47,6.14,6.14,0,0,0-4,3c-1.36,3.1,1.64,6.69.74,9.95-.8,2.89-3.51,4.12-4.93,6.76a6.07,6.07,0,0,0-.54,3.76,17.87,17.87,0,0,0,1.89,6.21,55.5,55.5,0,0,0,3.73,5.74Z" style="fill:#A75EFD"></path><g style="opacity:0.30000000000000004"><path d="M450.07,314.42c1.11.56,4.05-1.95,4.86-2.57a10.1,10.1,0,0,0,3.21-4.08,9.61,9.61,0,0,0,.57-5.8,22.43,22.43,0,0,0-.89-3l-1-2.94a7.5,7.5,0,0,1-.59-3c.16-2,1.89-3.57,3.47-4.88,1.75-1.45,3.55-3.34,3.41-5.79a8.63,8.63,0,0,0-2.41-5c-1.25-1.43-2.7-2.67-3.84-4.18a6,6,0,0,1-1.43-3.74,6.44,6.44,0,0,1,.71-2.42,33,33,0,0,0,2.36-4.91c.51-1.74.32-3.87-1.08-5a5.63,5.63,0,0,0-4.27-.83,9.68,9.68,0,0,0-3.85,1.58c-3.78,2.35-5.76,7.07-9.81,8.95a41.16,41.16,0,0,1-4.93,1.47,6.14,6.14,0,0,0-4,3c-1.36,3.1,1.64,6.69.74,9.95-.8,2.89-3.51,4.12-4.93,6.76a6.07,6.07,0,0,0-.54,3.76,17.87,17.87,0,0,0,1.89,6.21,55.5,55.5,0,0,0,3.73,5.74Z" style="fill:#fff"></path></g><path d="M439.37,308.84h0a.48.48,0,0,0,.44-.53c-1.77-19.18,6.22-40.87,12.5-47.37a.48.48,0,0,0-.7-.67c-6.4,6.63-14.56,28.67-12.76,48.13A.48.48,0,0,0,439.37,308.84Z" style="fill:#fff"></path><path d="M441.28,285.18l.14,0a64.9,64.9,0,0,1,13.84-3,.48.48,0,0,0,.44-.53.47.47,0,0,0-.53-.43,65.74,65.74,0,0,0-14.08,3,.5.5,0,0,0-.29.63A.49.49,0,0,0,441.28,285.18Z" style="fill:#fff"></path></g></g><g id="freepik--Shadows--inject-2"><path id="freepik--Shadow--inject-2" d="M483.86,178.79,356,105a9.74,9.74,0,0,0-8.83,0L165.4,209.88c-2.44,1.41-2.44,3.69,0,5.1l127.88,73.83a9.77,9.77,0,0,0,8.84,0L483.86,183.89C486.3,182.48,486.3,180.19,483.86,178.79Z" style="fill:#e0e0e0"></path><path id="freepik--shadow--inject-2" d="M438.53,169.34,310.64,95.51a9.74,9.74,0,0,0-8.83,0L120.07,200.43c-2.44,1.41-2.44,3.69,0,5.1L248,279.37a9.81,9.81,0,0,0,8.83,0L438.53,174.44C441,173,441,170.75,438.53,169.34Z" style="fill:#e0e0e0"></path><path id="freepik--shadow--inject-2" d="M477.52,329.21,412,291.47l3.83-2.22-3.52-2v-4.07l-21.15-12.21-3.34,1.92-10.44-6-12.85,7.42,10.45,6-1.45.83,21.15,12.21h7.05l3.53,2,3.89-2.25,66.93,38.56c1.17.67,1.83,1.52,1.83,2.31s-.66,1.65-1.83,2.32L352.36,407.73a12.15,12.15,0,0,1-10.88,0l-24.69-14.31,4.09-2.36-3.52-2v-4.07l-6-3.47,19.4-11.2c2.46-1.42,2.46-3.73,0-5.16L152.88,262.36a9.85,9.85,0,0,0-8.94,0L14.6,337c-2.47,1.42-2.47,3.73,0,5.16L192.46,445a9.89,9.89,0,0,0,8.93,0l92.33-53.31,6,3.48h7l3.53,2,3.65-2.1,26.1,15.13a15,15,0,0,0,13.72,0l123.74-71.43c2.1-1.21,3.27-2.92,3.25-4.78S479.62,330.42,477.52,329.21Z" style="fill:#e0e0e0"></path></g><g id="freepik--device-3--inject-2"><g id="freepik--hard-drive--inject-2"><g id="freepik--hard-drive--inject-2"><path d="M475.36,157.82,353,87.19a9.38,9.38,0,0,0-8.45,0L170.72,187.57c-2.33,1.35-2.33,3.53,0,4.88l122.34,70.63a9.32,9.32,0,0,0,8.45,0L475.36,162.7C477.69,161.36,477.69,159.17,475.36,157.82Z" style="fill:#A75EFD"></path><ellipse cx="297.28" cy="258.65" rx="2.8" ry="1.62" style="fill:#263238"></ellipse><ellipse cx="178.39" cy="190.01" rx="2.8" ry="1.62" style="fill:#263238"></ellipse><path d="M465.72,161.41a1.21,1.21,0,0,1,0-2.29,4.38,4.38,0,0,1,4,0,1.21,1.21,0,0,1,0,2.29A4.38,4.38,0,0,1,465.72,161.41Z" style="fill:#263238"></path><ellipse cx="348.8" cy="91.62" rx="2.8" ry="1.62" style="fill:#263238"></ellipse><path d="M477.11,160.27v18.3a3,3,0,0,1-1.75,2.44L301.51,281.39a9.38,9.38,0,0,1-8.45,0L170.72,210.76a3,3,0,0,1-1.75-2.45V190a3,3,0,0,0,1.75,2.44l122.34,70.63a9.32,9.32,0,0,0,8.45,0L475.36,162.71A3,3,0,0,0,477.11,160.27Z" style="fill:#263238"></path><polygon points="292.21 268.92 172.56 199.84 172.56 207.95 292.21 277.03 292.21 268.92" style="fill:#455a64"></polygon><polygon points="224.14 233 173.61 203.83 173.61 202.01 224.14 231.18 224.14 233" style="fill:#37474f"></polygon><polygon points="224.14 236.17 173.61 207 173.61 205.18 224.14 234.34 224.14 236.17" style="fill:#37474f"></polygon><polygon points="243.38 247.28 225.92 237.2 225.92 232.21 243.38 242.29 243.38 247.28" style="fill:#37474f"></polygon><polygon points="255.27 254.14 245.21 248.33 245.21 243.34 255.27 249.15 255.27 254.14" style="fill:#37474f"></polygon><polygon points="267.06 260.95 257 255.14 257 250.15 267.06 255.96 267.06 260.95" style="fill:#37474f"></polygon><polygon points="278.85 267.76 268.78 261.94 268.78 256.95 278.85 262.77 278.85 267.76" style="fill:#37474f"></polygon><polygon points="290.64 274.56 280.57 268.75 280.57 263.76 290.64 269.57 290.64 274.56" style="fill:#37474f"></polygon><path d="M297.28,282.4a8.7,8.7,0,0,0,4.23-1L475.36,181a3,3,0,0,0,1.75-2.44v-18.3a3,3,0,0,1-1.75,2.44L301.51,263.08a8.59,8.59,0,0,1-4.23,1Z" style="fill:#37474f"></path><path d="M342.46,247.46l-6.71,3.87c-2.09,1.21-3.79,4.46-3.79,7.25v5.23l14.3-8.26v-5.22C346.26,247.53,344.56,246.24,342.46,247.46Z" style="fill:#455a64"></path><path d="M341.71,253.07a6.24,6.24,0,0,1-2.6,5c-1.44.83-2.61-.05-2.61-2a6.24,6.24,0,0,1,2.61-5C340.54,250.27,341.71,251.15,341.71,253.07Z" style="fill:#ebebeb"></path><path d="M399.51,214.51l-6.7,3.88c-2.1,1.21-3.8,4.46-3.8,7.25v5.23l14.3-8.26v-5.22C403.31,214.59,401.61,213.3,399.51,214.51Z" style="fill:#455a64"></path><path d="M398.76,220.13a6.21,6.21,0,0,1-2.6,5c-1.44.83-2.6,0-2.6-2a6.23,6.23,0,0,1,2.6-5C397.6,217.33,398.76,218.21,398.76,220.13Z" style="fill:#ebebeb"></path><path d="M456.57,181.58l-6.71,3.87c-2.1,1.21-3.8,4.46-3.8,7.25v5.23l14.3-8.26v-5.22C460.36,181.65,458.66,180.36,456.57,181.58Z" style="fill:#455a64"></path><ellipse cx="453.21" cy="188.69" rx="4" ry="2.26" transform="translate(102.13 531.84) rotate(-66.95)" style="fill:#ebebeb"></ellipse><polygon points="437.08 197.85 412.3 212.16 412.3 205.05 437.08 190.74 437.08 197.85" style="fill:#e0e0e0"></polygon></g><path d="M394.77,133.37c-28.72-16.58-75.29-16.58-104,0-15.39,8.88-22.52,20.73-21.42,32.36L230,188.45c-1.33.77-1.16,2.1.37,3l64.4,37.17a5.72,5.72,0,0,0,5.16.22l39.88-23c19.8.46,39.86-3.67,55-12.4C423.48,176.83,423.48,150,394.77,133.37Z" style="fill:#A75EFD"></path><path d="M394.77,134.28c-28.72-16.58-75.29-16.58-104,0-15.39,8.88-22.52,20.73-21.42,32.36L230,189.36c-1.33.77-1.16,2.1.37,3l64.4,37.17a5.72,5.72,0,0,0,5.16.22l39.88-23c19.8.46,39.86-3.67,55-12.4C423.48,177.74,423.48,150.86,394.77,134.28Z" style="opacity:0.2"></path><path d="M394.77,132.12c-28.72-16.58-75.29-16.58-104,0-15.39,8.88-22.52,20.72-21.42,32.35L230,187.2c-1.33.77-1.16,2.1.37,3l64.4,37.18a5.72,5.72,0,0,0,5.16.22l39.88-23c19.8.46,39.86-3.67,55-12.4C423.48,175.58,423.48,148.7,394.77,132.12Z" style="fill:#A75EFD"></path><path d="M394.77,132.12c-28.72-16.58-75.29-16.58-104,0-15.39,8.88-22.52,20.72-21.42,32.35L230,187.2c-1.33.77-1.16,2.1.37,3l64.4,37.18a5.72,5.72,0,0,0,5.16.22l39.88-23c19.8.46,39.86-3.67,55-12.4C423.48,175.58,423.48,148.7,394.77,132.12Z" style="fill:#fff;opacity:0.1"></path><path d="M328.43,169.31c-8-4.64-8-12.16,0-16.8s21.07-4.64,29.11,0,8,12.16,0,16.8S336.47,174,328.43,169.31Z" style="fill:#A75EFD"></path><path d="M324.85,205.68,302,218.85c-2.26,1.31-6.21,1.15-8.82-.36l-10.46-6c-2.62-1.51-2.9-3.79-.64-5.1l22.82-13.18c2.27-1.3,6.22-1.14,8.83.37l10.46,6C326.83,202.09,327.11,204.37,324.85,205.68Z" style="fill:#A75EFD"></path><path d="M244.89,190.4l-1.48-.86,4.4-2.54,1.49.86-.89.8,3.54,2.05,4.33-2.51-3.54-2-1.39.51-1.48-.85,1.14-.66,2.12-1.23,1.14-.66,1.48.86-.88.8,8.8,5.09,1.39-.51,1.48.85-4.4,2.54-1.48-.85.89-.81-3.37-1.94-4.34,2.5,3.37,1.95,1.4-.51,1.47.85-4.4,2.54-1.47-.85.87-.8-8.8-5.09Z" style="fill:#A75EFD"></path><path d="M259.88,180a8.5,8.5,0,0,1,4.64-1,10.63,10.63,0,0,1,5,1.4l2,1.18q2.26,1.31,2.43,2.85c.11,1-.49,1.93-1.78,2.68l-4.79,2.76-1.47-.85.88-.8L258,183.15l-1.38.5-1.48-.85,1.13-.65Zm.37,2,8.49,4.9,1.41-.81c.76-.45,1.06-1,.9-1.56a3.26,3.26,0,0,0-1.69-1.72l-2-1.18a7.11,7.11,0,0,0-3-1,4.4,4.4,0,0,0-2.69.52Z" style="fill:#A75EFD"></path><path d="M270.17,174.09a8.47,8.47,0,0,1,4.65-1,10.52,10.52,0,0,1,4.95,1.4l2,1.17c1.51.87,2.31,1.82,2.42,2.86s-.48,1.93-1.78,2.68l-4.78,2.76-1.47-.85.88-.8-8.81-5.09-1.38.51-1.49-.86,1.13-.65Zm.38,2L279,181l1.4-.81c.77-.44,1.07-1,.91-1.55a3.27,3.27,0,0,0-1.69-1.72l-2.05-1.19a7.17,7.17,0,0,0-3-1,4.48,4.48,0,0,0-2.69.52Z" style="fill:#A75EFD"></path><g style="opacity:0.1"><path d="M244.89,190.4l-1.48-.86,4.4-2.54,1.49.86-.89.8,3.54,2.05,4.33-2.51-3.54-2-1.39.51-1.48-.85,1.14-.66,2.12-1.23,1.14-.66,1.48.86-.88.8,8.8,5.09,1.39-.51,1.48.85-4.4,2.54-1.48-.85.89-.81-3.37-1.94-4.34,2.5,3.37,1.95,1.4-.51,1.47.85-4.4,2.54-1.47-.85.87-.8-8.8-5.09Z"></path><path d="M259.88,180a8.5,8.5,0,0,1,4.64-1,10.63,10.63,0,0,1,5,1.4l2,1.18q2.26,1.31,2.43,2.85c.11,1-.49,1.93-1.78,2.68l-4.79,2.76-1.47-.85.88-.8L258,183.15l-1.38.5-1.48-.85,1.13-.65Zm.37,2,8.49,4.9,1.41-.81c.76-.45,1.06-1,.9-1.56a3.26,3.26,0,0,0-1.69-1.72l-2-1.18a7.11,7.11,0,0,0-3-1,4.4,4.4,0,0,0-2.69.52Z"></path><path d="M270.17,174.09a8.47,8.47,0,0,1,4.65-1,10.52,10.52,0,0,1,4.95,1.4l2,1.17c1.51.87,2.31,1.82,2.42,2.86s-.48,1.93-1.78,2.68l-4.78,2.76-1.47-.85.88-.8-8.81-5.09-1.38.51-1.49-.86,1.13-.65Zm.38,2L279,181l1.4-.81c.77-.44,1.07-1,.91-1.55a3.27,3.27,0,0,0-1.69-1.72l-2.05-1.19a7.17,7.17,0,0,0-3-1,4.48,4.48,0,0,0-2.69.52Z"></path></g></g></g><g id="freepik--device-2--inject-2"><g id="freepik--hard-drive--inject-2"><path d="M431.39,145.07a3,3,0,0,0-1.75-2.44L307.3,72a9.38,9.38,0,0,0-8.45,0L125,172.38a3,3,0,0,0-1.75,2.44c0,.88,0,17.42,0,18.3a3,3,0,0,0,1.75,2.44l122.34,70.63a9.32,9.32,0,0,0,8.45,0L429.64,165.82a3,3,0,0,0,1.75-2.44Z" style="fill:#37474f"></path><path d="M251.55,264.28a5.81,5.81,0,0,1-2.76-.62L126.62,193.12,300.31,92.84a6.48,6.48,0,0,1,5.53,0L428,163.38,254.32,263.66A5.82,5.82,0,0,1,251.55,264.28Z" style="fill:#263238"></path><path d="M219.85,200,209,148.49a10.22,10.22,0,0,0-15.11-6.74l-35.61,20.56a11.69,11.69,0,0,0-5.9,10.17c0,3.43,0,15,0,18.35a11.67,11.67,0,0,0,5.89,10.23L204,227.45l15.85-9.16Z" style="fill:#e0e0e0"></path><path d="M193.9,141.75l-35.61,20.56a11.8,11.8,0,0,0,0,20.44L204,209.14,219.85,200,209,148.49A10.22,10.22,0,0,0,193.9,141.75Z" style="fill:#ebebeb"></path><polygon points="219.85 199.99 204 209.14 204 227.45 219.85 218.29 219.85 199.99" style="opacity:0.1"></polygon><path d="M202.91,145a7.74,7.74,0,0,0-7.1,0,2.56,2.56,0,0,0-1.47,2.1v.82a2.54,2.54,0,0,0,1.47,2.09,7.68,7.68,0,0,0,7.1,0,2.54,2.54,0,0,0,1.47-2.09v-.82A2.56,2.56,0,0,0,202.91,145Z" style="fill:#e0e0e0"></path><path d="M195.81,149.2c-2-1.16-2-3,0-4.2a7.74,7.74,0,0,1,7.1,0c2,1.16,2,3,0,4.2A7.74,7.74,0,0,1,195.81,149.2Z" style="fill:#fafafa"></path><path d="M196.38,148.82c-1.65-.95-1.65-2.49,0-3.44a6.59,6.59,0,0,1,6,0c1.65,1,1.65,2.49,0,3.44A6.59,6.59,0,0,1,196.38,148.82Z" style="fill:#e0e0e0"></path><path d="M197.82,148a.94.94,0,0,1,0-1.78,3.41,3.41,0,0,1,3.08,0,.94.94,0,0,1,0,1.78A3.41,3.41,0,0,1,197.82,148Z" style="fill:#fafafa"></path><path d="M211.06,196a7.74,7.74,0,0,0-7.1,0,2.56,2.56,0,0,0-1.47,2.1V199a2.53,2.53,0,0,0,1.47,2.09,7.68,7.68,0,0,0,7.1,0,2.54,2.54,0,0,0,1.47-2.09v-.82A2.56,2.56,0,0,0,211.06,196Z" style="fill:#e0e0e0"></path><path d="M204,200.24c-2-1.16-2-3,0-4.2a7.74,7.74,0,0,1,7.1,0c2,1.16,2,3,0,4.2A7.68,7.68,0,0,1,204,200.24Z" style="fill:#fafafa"></path><path d="M204.53,199.86c-1.65-1-1.65-2.49,0-3.44a6.59,6.59,0,0,1,6,0c1.65,1,1.65,2.49,0,3.44A6.59,6.59,0,0,1,204.53,199.86Z" style="fill:#e0e0e0"></path><path d="M206,199a.94.94,0,0,1,0-1.78,3.41,3.41,0,0,1,3.08,0,.94.94,0,0,1,0,1.78A3.41,3.41,0,0,1,206,199Z" style="fill:#fafafa"></path><path d="M279.3,225.16l-37.77-21.81-17.72-1.07L208,211.43v13.73l5.49,7.75,27.29,15.75a21.67,21.67,0,0,0,21.64,0l16.92-9.77Z" style="fill:#e0e0e0"></path><path d="M279.29,225.16v13.73l-16.91,9.76a21.68,21.68,0,0,1-10.82,2.9V237.82a21.67,21.67,0,0,0,10.82-2.89Z" style="opacity:0.1"></path><path d="M240.74,234.93l-27.29-15.75L208,211.43l15.85-9.15,17.72,1.07,37.77,21.81-16.92,9.77A21.67,21.67,0,0,1,240.74,234.93Z" style="fill:#ebebeb"></path><path d="M247,234.93a1.37,1.37,0,0,1,0-2.59,5,5,0,0,1,4.49,0c1.24.72,1.24,1.88,0,2.59A4.94,4.94,0,0,1,247,234.93Z" style="fill:#e0e0e0"></path><path d="M247,234.93a1.37,1.37,0,0,1,0-2.59,5,5,0,0,1,4.49,0c1.24.72,1.24,1.88,0,2.59A4.94,4.94,0,0,1,247,234.93Z" style="opacity:0.1"></path><ellipse cx="245.23" cy="228.49" rx="1.39" ry="0.8" style="fill:#e0e0e0"></ellipse><ellipse cx="245.23" cy="228.49" rx="1.39" ry="0.8" style="opacity:0.1"></ellipse><path d="M217,217.76c-1.24-.72-1.24-1.88,0-2.59a4.94,4.94,0,0,1,4.49,0,1.37,1.37,0,0,1,0,2.59A5,5,0,0,1,217,217.76Z" style="fill:#e0e0e0"></path><path d="M217,217.76c-1.24-.72-1.24-1.88,0-2.59a4.94,4.94,0,0,1,4.49,0,1.37,1.37,0,0,1,0,2.59A5,5,0,0,1,217,217.76Z" style="opacity:0.1"></path><path d="M226.23,218.69a.6.6,0,0,1,0-1.14,2.18,2.18,0,0,1,2,0,.6.6,0,0,1,0,1.14A2.18,2.18,0,0,1,226.23,218.69Z" style="fill:#e0e0e0"></path><path d="M226.23,218.69a.6.6,0,0,1,0-1.14,2.18,2.18,0,0,1,2,0,.6.6,0,0,1,0,1.14A2.18,2.18,0,0,1,226.23,218.69Z" style="opacity:0.1"></path><polygon points="236.23 209.44 266.31 226.8 270.88 224.17 240.8 206.8 236.23 209.44" style="fill:#e0e0e0"></polygon><polygon points="237.37 210.09 266.31 226.8 269.74 224.83 240.8 208.12 237.37 210.09" style="fill:#f0f0f0"></polygon><polygon points="213.46 219.18 213.46 232.91 207.96 225.16 207.96 211.43 213.46 219.18" style="opacity:0.05"></polygon><path d="M429.64,142.63,307.3,72a9.38,9.38,0,0,0-8.45,0L125,172.38c-2.33,1.35-2.33,3.53,0,4.88l122.34,70.63a9.38,9.38,0,0,0,8.45,0L429.64,147.51C432,146.16,432,144,429.64,142.63ZM317.77,204.22,261.7,236.59c-5.6,3.23-14.68,3.23-20.28,0l-96.85-55.92c-5.6-3.23-5.6-8.48,0-11.71l63.85-36.86c5.6-3.24,7.61-2,6,3.42a35.83,35.83,0,0,0-1.43,10c0,15.37,9.87,29.54,27.79,39.88,16.74,9.66,38.85,15,62.26,15,4.47,0,8.89-.19,13.23-.58C322.74,199.29,323.37,201,317.77,204.22Zm1-112.74a151.59,151.59,0,0,0-31.3,0c-6.43.67-7-.93-1.44-4.17l6.95-4c5.6-3.23,14.68-3.23,20.28,0l7,4C325.76,90.55,325.15,92.15,318.72,91.48Zm91.34,59.45-11.5,6.64c-5.6,3.23-8,2.2-6.64-2.78a35.87,35.87,0,0,0,1.21-9.23,35.35,35.35,0,0,0-1.43-10c-1.57-5.39.44-6.66,6-3.42l12.32,7.11C415.66,142.46,415.66,147.7,410.06,150.93Z" style="fill:#455a64"></path><path d="M249.57,244.61a1.21,1.21,0,0,1,0-2.29,4.41,4.41,0,0,1,4,0,1.21,1.21,0,0,1,0,2.29A4.41,4.41,0,0,1,249.57,244.61Z" style="fill:#263238"></path><path d="M130.68,176a1.21,1.21,0,0,1,0-2.29,4.38,4.38,0,0,1,4,0,1.21,1.21,0,0,1,0,2.29A4.38,4.38,0,0,1,130.68,176Z" style="fill:#263238"></path><ellipse cx="421.97" cy="145.07" rx="2.8" ry="1.62" style="fill:#263238"></ellipse><path d="M301.09,77.57a1.21,1.21,0,0,1,0-2.29,4.41,4.41,0,0,1,4,0,1.21,1.21,0,0,1,0,2.29A4.41,4.41,0,0,1,301.09,77.57Z" style="fill:#263238"></path><path d="M244.22,179.53c-32.5-18.77-32.5-49.19,0-68s85.2-18.76,117.71,0,32.5,49.19,0,68S276.73,198.29,244.22,179.53Z" style="fill:#37474f"></path><path d="M245.37,178.87c-31.87-18.4-31.87-48.23,0-66.63s83.54-18.4,115.41,0,31.87,48.23,0,66.63S277.24,197.27,245.37,178.87Z" style="fill:#ebebeb"></path><path d="M303.07,99.41c21.63,0,41.95,4.86,57.22,13.67,15.1,8.72,23.42,20.25,23.42,32.47S375.39,169.3,360.29,178c-15.27,8.82-35.59,13.67-57.22,13.67s-41.94-4.85-57.21-13.67c-15.1-8.72-23.41-20.25-23.41-32.47s8.31-23.75,23.41-32.47c15.27-8.81,35.59-13.67,57.21-13.67m0-1c-20.88,0-41.76,4.6-57.7,13.8-31.87,18.4-31.87,48.23,0,66.63,15.94,9.2,36.82,13.8,57.7,13.8s41.77-4.6,57.71-13.8c31.87-18.4,31.87-48.23,0-66.63-15.94-9.2-36.82-13.8-57.71-13.8Z" style="fill:#fafafa"></path><path d="M321.46,132.21c-10.16-6-26.61-6-36.77,0-5.07,3-7.6,6.92-7.6,10.85v2.5c0,3.92,2.53,7.85,7.6,10.84,10.16,6,26.61,6,36.77,0,5.07-3,7.61-6.92,7.6-10.85v-2.49C329.06,139.13,326.53,135.21,321.46,132.21Z" style="fill:#e0e0e0"></path><path d="M284.69,153.91c-10.15-6-10.15-15.71,0-21.7s26.61-6,36.77,0,10.15,15.71,0,21.7S294.85,159.9,284.69,153.91Z" style="fill:#fafafa"></path><path d="M285.7,153.09c-9.6-5.54-9.6-14.52,0-20.06s25.16-5.54,34.75,0,9.6,14.52,0,20.06S295.29,158.63,285.7,153.09Z" style="fill:#e0e0e0"></path><path d="M285.7,153.09c-9.6-5.54-9.6-14.52,0-20.06s25.16-5.54,34.75,0,9.6,14.52,0,20.06S295.29,158.63,285.7,153.09Z" style="opacity:0.2"></path><path d="M320.45,134.64c-9.59-5.54-25.16-5.54-34.75,0-4.45,2.57-6.83,5.87-7.16,9.23.33,3.36,2.71,6.66,7.16,9.22,9.59,5.54,25.16,5.54,34.75,0,4.45-2.56,6.83-5.86,7.16-9.22C327.28,140.51,324.9,137.21,320.45,134.64Z" style="fill:#e0e0e0"></path><path d="M295.92,147.35c-3.94-2.37-3.94-6.21,0-8.57a15.29,15.29,0,0,1,14.31,0c3.95,2.36,3.95,6.2,0,8.57A15.35,15.35,0,0,1,295.92,147.35Z" style="fill:#fafafa"></path><path d="M296.51,146.85c-3.63-2.09-3.63-5.49,0-7.58a14.47,14.47,0,0,1,13.13,0c3.63,2.09,3.63,5.49,0,7.58A14.47,14.47,0,0,1,296.51,146.85Z" style="fill:#e0e0e0"></path><path d="M309.64,140.2a14.47,14.47,0,0,0-13.13,0,4.93,4.93,0,0,0-2.69,3.33,4.94,4.94,0,0,0,2.69,3.32,14.47,14.47,0,0,0,13.13,0,4.91,4.91,0,0,0,2.69-3.32A4.9,4.9,0,0,0,309.64,140.2Z" style="fill:#ebebeb"></path><path d="M301.09,144.2a1.2,1.2,0,0,1,0-2.28,4.34,4.34,0,0,1,4,0,1.2,1.2,0,0,1,0,2.28A4.34,4.34,0,0,1,301.09,144.2Z" style="fill:#fafafa"></path><path d="M304.45,143.77l-1.13-.65,1.09-.63a.13.13,0,0,0,0-.17.12.12,0,0,0-.17,0l-1.21.7-1.26-.73a.13.13,0,0,0-.12.22l1.13.65-1.09.63a.11.11,0,0,0,0,.16.12.12,0,0,0,.1.07l.06,0,1.22-.7,1.25.72.06,0a.13.13,0,0,0,.1-.06A.12.12,0,0,0,304.45,143.77Z" style="fill:#e0e0e0"></path><path d="M301.83,133.45a.76.76,0,0,1,0-1.44,2.73,2.73,0,0,1,2.49,0,.76.76,0,0,1,0,1.44A2.73,2.73,0,0,1,301.83,133.45Z" style="opacity:0.2"></path><ellipse cx="291.56" cy="135.72" rx="1.76" ry="1.02" style="opacity:0.2"></ellipse><path d="M316.33,136.44a.76.76,0,0,0,0-1.44,2.73,2.73,0,0,0-2.49,0,.76.76,0,0,0,0,1.44A2.73,2.73,0,0,0,316.33,136.44Z" style="opacity:0.2"></path><ellipse cx="291.56" cy="150.51" rx="1.76" ry="1.02" style="opacity:0.2"></ellipse><path d="M316.33,149.79a.76.76,0,0,1,0,1.44,2.73,2.73,0,0,1-2.49,0,.76.76,0,0,1,0-1.44A2.8,2.8,0,0,1,316.33,149.79Z" style="opacity:0.2"></path><ellipse cx="286.18" cy="143.12" rx="1.76" ry="1.02" style="opacity:0.2"></ellipse><ellipse cx="319.97" cy="143.12" rx="1.76" ry="1.02" style="opacity:0.2"></ellipse><path d="M301.83,152.78a.76.76,0,0,0,0,1.44,2.73,2.73,0,0,0,2.49,0,.76.76,0,0,0,0-1.44A2.8,2.8,0,0,0,301.83,152.78Z" style="opacity:0.2"></path><path d="M316.3,200c-4.34.38-8.76.57-13.23.57-23.4,0-45.52-5.35-62.26-15-15.82-9.13-25.39-21.34-27.4-34.62v9.87c2,13.35,11.52,25.51,27.4,34.68,16.74,9.66,38.86,15,62.26,15,1.34,0,2.68,0,4-.06l10.7-6.18C323.37,201,322.74,199.43,316.3,200Z" style="fill:#ebebeb"></path><path d="M321.5,201.17c-.39-.68-2.13-.92-5.2-.66-4.34.38-8.76.58-13.23.58-23.4,0-45.52-5.32-62.26-15C222.88,175.76,213,161.59,213,146.22c0-.13,0-.26,0-.38.11,15.27,10,29.33,27.78,39.6,16.74,9.67,38.86,15,62.26,15,4.47,0,8.89-.2,13.23-.58C320.21,199.51,322,200,321.5,201.17Z" style="fill:#37474f"></path><path d="M284.17,207.32c-27.6-3.52-66.32-18.2-70.76-49.17v1.3c2.88,19.76,21.71,33.53,39.42,40.58,20,7.95,42.1,10.26,63.47,8.19A156.89,156.89,0,0,1,284.17,207.32Z" style="opacity:0.2"></path><path d="M213.41,153.48c2.88,19.75,21.71,33.53,39.42,40.57,20,8,42.1,10.26,63.47,8.2a156.89,156.89,0,0,1-32.13-.91c-27.6-3.52-66.32-18.19-70.76-49.16Z" style="opacity:0.2"></path><path d="M284.17,205.33c-27.6-3.53-66.32-18.2-70.76-49.17v1.3c2.88,19.76,21.71,33.53,39.42,40.57,20,8,42.1,10.27,63.47,8.2A157.6,157.6,0,0,1,284.17,205.33Z" style="opacity:0.2"></path><path d="M284.17,203.33c-27.6-3.52-66.32-18.19-70.76-49.16v1.3c2.88,19.76,21.71,33.53,39.42,40.57,20,8,42.1,10.26,63.47,8.2A156.89,156.89,0,0,1,284.17,203.33Z" style="opacity:0.2"></path><path d="M240.16,195.09l.65.38a108.82,108.82,0,0,0,30.07,11.44v-10a108.84,108.84,0,0,1-30.07-11.46l-.65-.37Z" style="fill:#37474f"></path><path d="M289,159.8l-16.11,1.29-73.63,1.36h0a20.71,20.71,0,0,0-9.65,2.43,11.47,11.47,0,0,0-2.23,1.67,6,6,0,0,0-2,3.88v0c0,.11,0,.22,0,.33v1.91c0,2.13,1.41,4.27,4.23,5.91,4.09,2.35,10,3,15.11,2h0l68.57-14.43,16-1.49v-1.9Zm-71.39,7.08a4.32,4.32,0,0,1,1.76-.53l16-1.8a5.19,5.19,0,0,1,3.06.54c1.32.77,1.32,2,0,2.78a4.73,4.73,0,0,1-1.68.53h-.09l-16,1.8h-.11a5.09,5.09,0,0,1-3-.55C216.23,168.89,216.23,167.65,217.56,166.88Z" style="fill:#e0e0e0"></path><path d="M289,159.8h0l-16.11,1.29-73.63,1.36h0a20.71,20.71,0,0,0-9.65,2.43,11.47,11.47,0,0,0-2.23,1.67c-3.28,3.21-2.54,7.41,2.23,10.16,4.09,2.36,10,3,15.12,2h0l68.57-14.44,16-1.48h0Zm-50.61,8.07a4.73,4.73,0,0,1-1.68.53h-.09l-16,1.8h-.11a5.09,5.09,0,0,1-3-.55c-1.33-.77-1.33-2,0-2.78a4.32,4.32,0,0,1,1.76-.53l16-1.8a5.19,5.19,0,0,1,3.06.54C239.67,165.86,239.67,167.1,238.35,167.87Z" style="fill:#f5f5f5"></path><path d="M206.85,165.77a15.27,15.27,0,0,0-14.1,0c-1.95,1.14-2.92,2.65-2.92,4.16v1c0,1.5,1,3,2.92,4.16a15.27,15.27,0,0,0,14.1,0c2-1.15,2.92-2.66,2.92-4.17v-.95C209.77,168.42,208.8,166.91,206.85,165.77Z" style="fill:#e0e0e0"></path><path d="M192.75,174.09c-3.9-2.3-3.9-6,0-8.32a15.27,15.27,0,0,1,14.1,0c3.89,2.29,3.89,6,0,8.32A15.27,15.27,0,0,1,192.75,174.09Z" style="fill:#fafafa"></path><path d="M193.13,173.78c-3.68-2.13-3.68-5.58,0-7.7a14.7,14.7,0,0,1,13.33,0c3.69,2.12,3.69,5.57,0,7.7A14.76,14.76,0,0,1,193.13,173.78Z" style="fill:#e0e0e0"></path><path d="M193.13,173.78c-3.68-2.13-3.68-5.58,0-7.7a14.7,14.7,0,0,1,13.33,0c3.69,2.12,3.69,5.57,0,7.7A14.76,14.76,0,0,1,193.13,173.78Z" style="opacity:0.2"></path><path d="M206.46,166.7a14.7,14.7,0,0,0-13.33,0,4.85,4.85,0,0,0-2.74,3.54,4.87,4.87,0,0,0,2.74,3.54,14.76,14.76,0,0,0,13.33,0,4.88,4.88,0,0,0,2.75-3.54A4.87,4.87,0,0,0,206.46,166.7Z" style="fill:#e0e0e0"></path><path d="M197.33,171.36c-1.37-.79-1.37-2.07,0-2.86a5.44,5.44,0,0,1,4.94,0c1.37.79,1.37,2.07,0,2.86A5.51,5.51,0,0,1,197.33,171.36Z" style="fill:#fafafa"></path><polygon points="273.24 164.25 289.29 162.77 289.27 164.67 273.23 166.16 273.24 164.25" style="opacity:0.1"></polygon><ellipse cx="250.25" cy="165.11" rx="2.38" ry="1.37" style="opacity:0.1"></ellipse><path d="M239.17,167.1a2.17,2.17,0,0,0-.82-.76,5.19,5.19,0,0,0-3.06-.55l-16,1.8a4.49,4.49,0,0,0-1.76.54,2.18,2.18,0,0,0-.82.76c-.39-.68-.12-1.46.82-2a4.32,4.32,0,0,1,1.76-.53l16-1.8a5.19,5.19,0,0,1,3.06.54C239.28,165.63,239.56,166.41,239.17,167.1Z" style="fill:#e0e0e0"></path><path d="M239.17,167.1a2.17,2.17,0,0,0-.82-.76,5.19,5.19,0,0,0-3.06-.55l-16,1.8a4.49,4.49,0,0,0-1.76.54,2.18,2.18,0,0,0-.82.76c-.39-.68-.12-1.46.82-2a4.32,4.32,0,0,1,1.76-.53l16-1.8a5.19,5.19,0,0,1,3.06.54C239.28,165.63,239.56,166.41,239.17,167.1Z" style="opacity:0.1"></path><path d="M287.57,215.38a2.74,2.74,0,0,0-1.61-2.23,8.52,8.52,0,0,0-7.74,0,2.72,2.72,0,0,0-1.6,2.23v2.16a2.7,2.7,0,0,0,1.6,2.23,8.52,8.52,0,0,0,7.74,0,2.71,2.71,0,0,0,1.61-2.23Z" style="fill:#263238"></path><path d="M278.22,213.15a2.36,2.36,0,0,0,0,4.47,8.58,8.58,0,0,0,7.74,0,2.36,2.36,0,0,0,0-4.47A8.52,8.52,0,0,0,278.22,213.15Z" style="fill:#455a64"></path><path d="M431.38,145.08v18.3a2.94,2.94,0,0,1-1.75,2.44L255.78,266.2a9.38,9.38,0,0,1-8.45,0L125,195.57a3,3,0,0,1-1.74-2.45v-18.3a3,3,0,0,0,1.74,2.43l122.34,70.64a9.32,9.32,0,0,0,8.45,0L429.63,147.52A3,3,0,0,0,431.38,145.08Z" style="fill:#263238"></path><polygon points="246.48 253.72 126.83 184.64 126.83 192.76 246.48 261.84 246.48 253.72" style="fill:#455a64"></polygon><polygon points="178.41 217.81 127.89 188.64 127.89 186.82 178.41 215.99 178.41 217.81" style="fill:#37474f"></polygon><polygon points="178.41 220.97 127.89 191.81 127.89 189.98 178.41 219.15 178.41 220.97" style="fill:#37474f"></polygon><polygon points="197.66 232.09 180.2 222.01 180.2 217.02 197.66 227.1 197.66 232.09" style="fill:#37474f"></polygon><polygon points="209.55 238.95 199.48 233.14 199.48 228.15 209.55 233.96 209.55 238.95" style="fill:#37474f"></polygon><polygon points="221.34 245.76 211.27 239.95 211.27 234.96 221.34 240.77 221.34 245.76" style="fill:#37474f"></polygon><polygon points="233.13 252.56 223.06 246.75 223.06 241.76 233.13 247.58 233.13 252.56" style="fill:#37474f"></polygon><polygon points="244.91 259.37 234.85 253.56 234.85 248.57 244.91 254.38 244.91 259.37" style="fill:#37474f"></polygon><path d="M251.55,267.2a8.59,8.59,0,0,0,4.23-1L429.63,165.82a2.94,2.94,0,0,0,1.75-2.44v-18.3a3,3,0,0,1-1.75,2.44L255.78,247.89a8.59,8.59,0,0,1-4.23,1Z" style="fill:#37474f"></path><path d="M296.73,232.26l-6.7,3.88c-2.1,1.21-3.8,4.46-3.8,7.25v5.23l14.3-8.26v-5.22C300.53,232.34,298.83,231.05,296.73,232.26Z" style="fill:#455a64"></path><path d="M296,237.88a6.21,6.21,0,0,1-2.6,5c-1.44.83-2.6,0-2.6-2a6.23,6.23,0,0,1,2.6-5C294.82,235.08,296,236,296,237.88Z" style="fill:#ebebeb"></path><path d="M353.79,199.32l-6.71,3.88c-2.1,1.21-3.8,4.46-3.8,7.25v5.23l14.31-8.26v-5.23C357.59,199.4,355.88,198.11,353.79,199.32Z" style="fill:#455a64"></path><path d="M353,204.94a6.22,6.22,0,0,1-2.61,5c-1.43.83-2.6,0-2.6-2a6.26,6.26,0,0,1,2.6-5C351.87,202.14,353,203,353,204.94Z" style="fill:#ebebeb"></path><path d="M410.84,166.38l-6.71,3.88c-2.09,1.21-3.8,4.46-3.8,7.25v5.23l14.31-8.26v-5.22C414.64,166.46,412.94,165.17,410.84,166.38Z" style="fill:#455a64"></path><ellipse cx="407.49" cy="173.5" rx="4" ry="2.26" transform="translate(88.29 480.52) rotate(-66.95)" style="fill:#ebebeb"></ellipse><polygon points="391.35 182.66 366.57 196.97 366.57 189.85 391.35 175.55 391.35 182.66" style="fill:#e0e0e0"></polygon></g></g><g id="freepik--device-1--inject-2"><g id="freepik--hard-drive--inject-2"><polygon points="319.71 360.36 319.71 342.26 194.34 414.65 194.34 432.75 319.71 360.36" style="fill:#A75EFD"></polygon><polygon points="319.71 360.36 319.71 342.26 194.34 414.65 194.34 432.75 319.71 360.36" style="opacity:0.30000000000000004"></polygon><polygon points="323.63 362.62 319.71 360.36 194.34 432.75 198.26 435.01 323.63 362.62" style="fill:#A75EFD"></polygon><polygon points="323.63 362.62 319.71 360.36 194.34 432.75 198.26 435.01 323.63 362.62" style="fill:#fff;opacity:0.2"></polygon><path d="M21.94,337.44v-22a9.25,9.25,0,0,1,4.18-7.23l94.63-54.64a61,61,0,0,1,61,0l141.9,81.93V340l-122.1,70.5a7.26,7.26,0,0,0-3.27,5.67V433c0,1.11.78,1.57,1.74,1l123.63-71.38v4.53L198.51,439.38a2.91,2.91,0,0,1-2.95.29h0L23.17,340.14h0A2.93,2.93,0,0,1,21.94,337.44Z" style="fill:#A75EFD"></path><path d="M21.94,337.44v-22a9.25,9.25,0,0,1,4.18-7.23l94.63-54.64a61,61,0,0,1,61,0l141.9,81.93V340l-122.1,70.5a7.26,7.26,0,0,0-3.27,5.67V433c0,1.11.78,1.57,1.74,1l123.63-71.38v4.53L198.51,439.38a2.91,2.91,0,0,1-2.95.29h0L23.17,340.14h0A2.93,2.93,0,0,1,21.94,337.44Z" style="fill:#fff;opacity:0.7000000000000001"></path><g style="opacity:0.7000000000000001"><path d="M177.71,384.34a5.65,5.65,0,0,1,2.79-.78,5.74,5.74,0,0,1,2.87.8c.93.54,1.39,1.09,1.4,1.66s-.45,1.11-1.34,1.62l-1.76,1,2.84,1.64a.25.25,0,0,1,.15.19.18.18,0,0,1-.11.18l-.89.51a.51.51,0,0,1-.31.06.58.58,0,0,1-.33-.09l-8.21-4.74a.25.25,0,0,1-.16-.19.18.18,0,0,1,.11-.18Zm2.37,3.4,1.71-1a1.31,1.31,0,0,0,.71-.75c.06-.25-.15-.51-.62-.79a2.33,2.33,0,0,0-1.36-.35,3.17,3.17,0,0,0-1.28.42l-1.7,1Z" style="fill:#fff"></path><path d="M184.77,384.09a4.89,4.89,0,0,1-1.1-.91,1.83,1.83,0,0,1-.49-1,1.39,1.39,0,0,1,.25-1,3.11,3.11,0,0,1,1.13-1,5.94,5.94,0,0,1,1.67-.66,6.71,6.71,0,0,1,1.73-.14,7.55,7.55,0,0,1,1.7.28,8.39,8.39,0,0,1,1.59.64c.17.09.35.18.55.3l.61.34.59.35.52.32a5.25,5.25,0,0,1,1.11.91,1.86,1.86,0,0,1,.49,1,1.38,1.38,0,0,1-.27,1,3.39,3.39,0,0,1-1.13,1,6.12,6.12,0,0,1-1.68.66,6.26,6.26,0,0,1-1.72.15,7.46,7.46,0,0,1-1.69-.28,9.16,9.16,0,0,1-1.58-.64l-.55-.3-.61-.35-.6-.35Zm5-2.84a4.33,4.33,0,0,0-1.93-.52,3.4,3.4,0,0,0-1.74.42c-.51.3-.76.63-.73,1s.32.74.9,1.11c.31.2.66.41,1.05.64s.76.43,1.1.6a4.2,4.2,0,0,0,1.92.52,3.28,3.28,0,0,0,1.74-.43c.51-.29.76-.63.74-1s-.32-.74-.9-1.11l-1.05-.63C190.53,381.63,190.16,381.43,189.82,381.25Z" style="fill:#fff"></path><path d="M192.52,375.79a5.43,5.43,0,0,1,5.59,0,2.93,2.93,0,0,1,1.22,1.12,1.13,1.13,0,0,1-.12,1.19l4.66.94a.48.48,0,0,1,.18.06.22.22,0,0,1,.12.15.14.14,0,0,1-.09.15l-.93.54a1,1,0,0,1-.45.12l-.37,0-4.4-.88-1.47.84,3,1.71a.28.28,0,0,1,.16.19.17.17,0,0,1-.11.18l-.89.52a.59.59,0,0,1-.31.06.58.58,0,0,1-.33-.09l-8.21-4.74a.26.26,0,0,1-.16-.19.18.18,0,0,1,.11-.18Zm2.35,3.27,1.6-.93a1.53,1.53,0,0,0,.75-.72q.12-.36-.6-.78a2.13,2.13,0,0,0-1.32-.33,3.36,3.36,0,0,0-1.25.44l-1.59.92Z" style="fill:#fff"></path><path d="M201.81,370.43a.59.59,0,0,1,.31-.07.8.8,0,0,1,.33.09l.91.52a.29.29,0,0,1,.15.19.17.17,0,0,1-.11.18l-2,1.15,7,4a.27.27,0,0,1,.15.19.18.18,0,0,1-.11.18l-.89.51a.59.59,0,0,1-.31.07.8.8,0,0,1-.33-.09l-7-4-2,1.15a.49.49,0,0,1-.31.06.58.58,0,0,1-.33-.09l-.9-.52a.29.29,0,0,1-.16-.19.2.2,0,0,1,.11-.18Z" style="fill:#fff"></path><path d="M206.05,368a.62.62,0,0,1,.37-.09,2.17,2.17,0,0,1,.48.1l10.73,3.08.1,0a.28.28,0,0,1,.16.19c0,.08,0,.13-.11.18l-.79.46a.9.9,0,0,1-.42.12,1.39,1.39,0,0,1-.33-.06l-1.88-.54-3.48,2,.93,1.09a.34.34,0,0,1,.09.19c0,.08-.05.16-.2.24l-.79.46a.59.59,0,0,1-.31.06.67.67,0,0,1-.33-.09l-.08-.06-5.34-6.19a.67.67,0,0,1-.17-.28c0-.07,0-.15.16-.21Zm6.19,2.87-4.84-1.39,2.42,2.79Z" style="fill:#fff"></path><path d="M219.38,370.56a.54.54,0,0,1-.32.06.57.57,0,0,1-.32-.09l-8.22-4.74a.25.25,0,0,1-.15-.19.18.18,0,0,1,.11-.18l3.24-1.87a4.56,4.56,0,0,1,1.43-.54,5.44,5.44,0,0,1,1.38-.08,5.83,5.83,0,0,1,1.23.23,5.43,5.43,0,0,1,1,.4,2.74,2.74,0,0,1,.59.45,1.36,1.36,0,0,1,.29.41,1.11,1.11,0,0,1,.1.35.76.76,0,0,1,0,.23,6.77,6.77,0,0,1,1.38.07,4.55,4.55,0,0,1,1.53.55,3.07,3.07,0,0,1,.8.65,1.65,1.65,0,0,1,.41.75,1.17,1.17,0,0,1-.13.79,2,2,0,0,1-.79.73Zm-2.1-6.1a1.81,1.81,0,0,0-1-.27,2.22,2.22,0,0,0-1.09.34l-1.95,1.12,2,1.13,1.95-1.12c.38-.22.58-.43.59-.63S217.61,364.64,217.28,364.46ZM219,369l2-1.18c.41-.23.6-.46.59-.68s-.18-.43-.5-.62a2.25,2.25,0,0,0-2.26,0l-2,1.17Z" style="fill:#fff"></path><path d="M230.16,362.5a.51.51,0,0,1,.31-.06.67.67,0,0,1,.33.08l.91.53a.25.25,0,0,1,.15.19.18.18,0,0,1-.11.18l-4.82,2.78a.51.51,0,0,1-.31.06.58.58,0,0,1-.33-.09l-8.21-4.74a.26.26,0,0,1-.16-.19.18.18,0,0,1,.11-.18l.89-.51a.59.59,0,0,1,.31-.07.8.8,0,0,1,.33.09l7,4Z" style="fill:#fff"></path><path d="M236.65,358.75a.68.68,0,0,1,.31-.06.8.8,0,0,1,.33.09l.9.52c.09.06.15.12.15.19a.18.18,0,0,1-.1.18l-4.84,2.79a.49.49,0,0,1-.31.06.73.73,0,0,1-.33-.08l-8.21-4.75a.25.25,0,0,1-.15-.19.18.18,0,0,1,.1-.18l4.75-2.74a.68.68,0,0,1,.31-.06.8.8,0,0,1,.33.09l.9.52c.09.06.15.12.16.19a.18.18,0,0,1-.11.18l-3.56,2.05,2,1.17,3.32-1.91a.49.49,0,0,1,.31-.06.7.7,0,0,1,.33.08l.9.53a.25.25,0,0,1,.15.19.18.18,0,0,1-.1.18l-3.32,1.91,2.11,1.22Z" style="fill:#fff"></path><path d="M196.84,395.43a.75.75,0,0,0-.2-.6,2,2,0,0,0-.49-.39,2.71,2.71,0,0,0-1.16-.35,2.11,2.11,0,0,0-1.28.32c-.4.23-.58.47-.54.7a1.34,1.34,0,0,0,.48.74.27.27,0,0,1,.11.22.25.25,0,0,1-.11.17l-.87.5a.71.71,0,0,1-.31.07.59.59,0,0,1-.33-.1,2.82,2.82,0,0,1-.83-.77,1.59,1.59,0,0,1-.3-.85,1.44,1.44,0,0,1,.26-.85,2.4,2.4,0,0,1,.84-.75,5,5,0,0,1,1.46-.54,6.45,6.45,0,0,1,1.51-.09,6.29,6.29,0,0,1,1.41.24,6,6,0,0,1,1.16.49q.32.18.57.36a2.09,2.09,0,0,1,.42.42,1.61,1.61,0,0,1,.24.55,2.18,2.18,0,0,1,.05.74l.11,2.42,3.07-1.77a.68.68,0,0,1,.31-.06.8.8,0,0,1,.32.09l.91.52a.29.29,0,0,1,.15.19.17.17,0,0,1-.11.18l-5.14,3a.49.49,0,0,1-.31.06.6.6,0,0,1-.33-.09l-.77-.44a.57.57,0,0,1-.27-.29.53.53,0,0,1,0-.23Z" style="fill:#fff"></path><path d="M201.59,388.17a.49.49,0,0,1,.31-.06.63.63,0,0,1,.33.09l.9.52a.25.25,0,0,1,.15.19.18.18,0,0,1-.1.18l-2,1.14,7,4a.28.28,0,0,1,.16.19.18.18,0,0,1-.11.18l-.89.52a.53.53,0,0,1-.31.06.58.58,0,0,1-.33-.09l-7-4-2,1.14a.59.59,0,0,1-.31.07.8.8,0,0,1-.33-.09l-.91-.52a.29.29,0,0,1-.15-.19.17.17,0,0,1,.11-.18Z" style="fill:#fff"></path><path d="M212.18,392.33a.49.49,0,0,1-.31.06.63.63,0,0,1-.33-.09l-8.21-4.74a.27.27,0,0,1-.15-.19.18.18,0,0,1,.1-.18l3.25-1.87a4.47,4.47,0,0,1,1.43-.54,5.44,5.44,0,0,1,1.38-.08,5.26,5.26,0,0,1,1.23.23,4.65,4.65,0,0,1,.94.4,2.59,2.59,0,0,1,.6.45,1.64,1.64,0,0,1,.29.41.86.86,0,0,1,.09.35.54.54,0,0,1,0,.23,6.84,6.84,0,0,1,1.39.07,4.37,4.37,0,0,1,1.52.55,3.3,3.3,0,0,1,.81.65,1.62,1.62,0,0,1,.4.75,1.11,1.11,0,0,1-.12.79,2.06,2.06,0,0,1-.8.73Zm-2.09-6.1a1.81,1.81,0,0,0-1-.27,2.19,2.19,0,0,0-1.09.34l-1.95,1.12,2,1.13,1.95-1.12c.38-.22.58-.43.59-.63S210.41,386.41,210.09,386.23Zm1.69,4.5,2-1.18c.4-.23.6-.46.59-.68s-.18-.43-.5-.62a2.2,2.2,0,0,0-1.08-.28,2.23,2.23,0,0,0-1.18.32l-2,1.18Z" style="fill:#fff"></path></g><path d="M23.17,340.14h0a2.93,2.93,0,0,1-1.23-2.7v-22a8.56,8.56,0,0,1,1.23-4.12L199.22,412.94a6.65,6.65,0,0,0-1,3.23V433c0,1.11.78,1.57,1.74,1l3.11-1.79.31,4.34-4.91,2.83a2.91,2.91,0,0,1-2.95.29h0Z" style="fill:#A75EFD;opacity:0.2"></path><path d="M199.22,412.94a7.6,7.6,0,0,0-.79,2l-172.56-102Z" style="fill:#fff"></path><path d="M201.53,410.5a7.26,7.26,0,0,0-3.27,5.67V433c0,1.11.78,1.57,1.74,1l123.63-71.38v4.53L198.51,439.38c-2.29,1.33-4.17.25-4.17-2.41V415a9.26,9.26,0,0,1,4.17-7.23l125.12-72.24V340Z" style="fill:#A75EFD"></path><path d="M201.53,410.5a7.26,7.26,0,0,0-3.27,5.67V433c0,1.11.78,1.57,1.74,1l123.63-71.38v4.53L198.51,439.38c-2.29,1.33-4.17.25-4.17-2.41V415a9.26,9.26,0,0,1,4.17-7.23l125.12-72.24V340Z" style="fill:#fff;opacity:0.4"></path><path d="M305.87,336.68l-9.66,5.58a4.6,4.6,0,0,1-4.18,0l-3.66-2.11a1.27,1.27,0,0,1,0-2.41l9.67-5.58a4.58,4.58,0,0,1,4.17,0l3.66,2.11A1.27,1.27,0,0,1,305.87,336.68Z" style="fill:#A75EFD"></path><path d="M305.87,336.68l-9.66,5.58a4.6,4.6,0,0,1-4.18,0l-3.66-2.11a1.27,1.27,0,0,1,0-2.41l9.67-5.58a4.58,4.58,0,0,1,4.17,0l3.66,2.11A1.27,1.27,0,0,1,305.87,336.68Z" style="opacity:0.30000000000000004"></path><path d="M288.37,338.87l9.67-5.58a4.64,4.64,0,0,1,4.17,0l3.66,2.11a1.88,1.88,0,0,1,.69.64,1.73,1.73,0,0,1-.69.64l-9.66,5.58a4.6,4.6,0,0,1-4.18,0l-3.66-2.11a.64.64,0,1,1,0-1.28Z" style="fill:#A75EFD"></path><path d="M295.88,340c.48.28.28.86-.46,1.29a2.6,2.6,0,0,1-2.22.26c-.49-.28-.29-.86.45-1.28A2.59,2.59,0,0,1,295.88,340Z" style="fill:#fff;opacity:0.4"></path><path d="M303.39,336.66l-5.12,3a1.82,1.82,0,0,1-1.65-.07h0c-.49-.28-.54-.71-.12-.95l5.12-3a1.85,1.85,0,0,1,1.65.07h0C303.76,336,303.81,336.42,303.39,336.66Z" style="fill:#fff;opacity:0.4"></path><polygon points="377.4 255.68 392.81 264.58 379.97 272 364.55 263.1 377.4 255.68" style="fill:#ebebeb"></polygon><polygon points="379.97 272 364.55 263.1 364.55 269.03 379.97 277.93 379.97 272" style="fill:#e0e0e0"></polygon><polygon points="379.97 272 364.55 263.1 364.55 269.03 379.97 277.93 379.97 272" style="opacity:0.1"></polygon><polygon points="391.18 259.78 412.33 272 412.33 276.06 415.85 278.1 405.28 284.21 401.75 282.17 394.7 282.17 373.55 269.96 391.18 259.78" style="fill:#455a64"></polygon><polygon points="415.85 278.1 415.85 286.24 405.28 292.35 401.75 290.31 394.7 290.31 373.55 278.1 373.55 269.96 394.7 282.17 401.75 282.17 405.28 284.21 415.85 278.1" style="fill:#37474f"></polygon><polygon points="401.75 282.17 401.75 290.31 405.28 292.35 405.28 284.21 401.75 282.17" style="fill:#263238"></polygon><polygon points="394.7 282.17 373.55 269.96 373.55 278.1 394.7 290.31 394.7 282.17" style="fill:#263238"></polygon><path d="M412.79,281.8l2.52,1.46h0a2,2,0,0,1,.84,1.85,6.31,6.31,0,0,1-2.85,4.95,2,2,0,0,1-2,.2h0l-2.53-1.46a2,2,0,0,1-.83-1.85,6.32,6.32,0,0,1,2.86-4.95A2,2,0,0,1,412.79,281.8Z" style="fill:#455a64"></path><path d="M416.15,285.11a6.31,6.31,0,0,1-2.85,4.95c-1.58.91-2.86.17-2.86-1.65a6.32,6.32,0,0,1,2.86-5C414.88,282.55,416.15,283.29,416.15,285.11Z" style="fill:#263238"></path><path d="M372.57,265.47l2.1,1.22,2.68-1.55-2.1-1.22ZM382,260l-2.68,1.55,2.11,1.21,2.68-1.55Z" style="fill:#37474f"></path><polygon points="296.21 361.89 317.36 374.1 317.36 378.17 320.88 380.2 310.31 386.31 306.78 384.27 299.73 384.27 278.58 372.06 296.21 361.89" style="fill:#455a64"></polygon><polygon points="320.88 380.2 320.88 388.35 310.31 394.45 306.78 392.42 299.73 392.42 278.58 380.2 278.58 372.06 299.73 384.27 306.78 384.27 310.31 386.31 320.88 380.2" style="fill:#37474f"></polygon><polygon points="306.78 384.27 306.78 392.42 310.31 394.45 310.31 386.31 306.78 384.27" style="fill:#263238"></polygon><polygon points="299.73 384.27 278.58 372.06 278.58 380.2 299.73 392.42 299.73 384.27" style="fill:#263238"></polygon><path d="M317.82,383.91l2.53,1.45h0a2,2,0,0,1,.84,1.85,6.3,6.3,0,0,1-2.86,5,2,2,0,0,1-2,.2h0l-2.52-1.46a2,2,0,0,1-.84-1.85,6.33,6.33,0,0,1,2.86-4.95A2,2,0,0,1,317.82,383.91Z" style="fill:#455a64"></path><path d="M321.19,387.21a6.3,6.3,0,0,1-2.86,5c-1.58.91-2.86.18-2.86-1.65a6.3,6.3,0,0,1,2.86-4.94C319.91,384.65,321.19,385.39,321.19,387.21Z" style="fill:#263238"></path><path d="M477.52,322.16l-63.13-36.4h0a.72.72,0,0,0-.71.07,2.2,2.2,0,0,0-1,1.74.67.67,0,0,0,.3.64l63.13,36.41c1.17.67,1.83,1.52,1.83,2.31s-.66,1.65-1.83,2.32L352.36,400.68a12.15,12.15,0,0,1-10.88,0l-22.06-12.81h0a.72.72,0,0,0-.71.07,2.22,2.22,0,0,0-1,1.75.68.68,0,0,0,.3.64l22.06,12.8a14.92,14.92,0,0,0,13.72,0L477.52,331.7c2.1-1.2,3.27-2.91,3.25-4.77S479.62,323.37,477.52,322.16Z" style="fill:#455a64"></path></g></g><g id="freepik--speech-bubble--inject-2"><g id="freepik--speech-bubble--inject-2"><g id="freepik--speech-bubble--inject-2"><path d="M71.18,247.78l1.31-4.09c.71-3.3-12.77,4.48-13.48,7.78l4.35,11.69a1.78,1.78,0,0,0,.73.86c1,.58,4.46,2.56,4.77,2.75a1.88,1.88,0,0,0,2.77-1l5.63-19.3C77.61,244.81,74.5,245.88,71.18,247.78Z" style="fill:#A75EFD"></path><path d="M89.5,147.34,38.26,176.9a3.81,3.81,0,0,0-1.73,3v82.58a3.78,3.78,0,0,0,1.74,3l3.17,1.8a3.89,3.89,0,0,0,3.47,0l51.25-29.56a3.86,3.86,0,0,0,1.73-3V152.1a3.8,3.8,0,0,0-1.74-3L93,147.32A3.88,3.88,0,0,0,89.5,147.34Z" style="fill:#A75EFD"></path><path d="M96.16,151.1,44.91,180.66a3.81,3.81,0,0,0-1.73,3v82.58c0,1.1.77,1.55,1.73,1l19.61-11.31,3.61,10a1.87,1.87,0,0,0,3.5-.18l4.79-16.68,19.74-11.38a3.86,3.86,0,0,0,1.73-3V152.1C97.89,151,97.11,150.54,96.16,151.1Z" style="fill:#A75EFD"></path><path d="M96.16,151.1,44.91,180.66a3.81,3.81,0,0,0-1.73,3v82.58c0,1.1.77,1.55,1.73,1l19.61-11.31,3.61,10a1.87,1.87,0,0,0,3.5-.18l4.79-16.68,19.74-11.38a3.86,3.86,0,0,0,1.73-3V152.1C97.89,151,97.11,150.54,96.16,151.1Z" style="fill:#fff;opacity:0.4"></path><path d="M97.87,151.78c-.14-.87-.85-1.18-1.72-.69L44.91,180.66A3.53,3.53,0,0,0,43.69,182l-6.62-3.82a3.43,3.43,0,0,1,1.19-1.23l51.25-29.57a3.85,3.85,0,0,1,3.47,0l3.17,1.79A3.84,3.84,0,0,1,97.87,151.78Z" style="fill:#fff;opacity:0.7000000000000001"></path></g><path id="freepik--Symbol--inject-2" d="M76.32,185.4v7.54l2-1.17V199l-7.42,14.34v-31l2.72-1.57-3.52-5.51-3.51,9.57,2.71-1.57v39.79l-7-5.49v-6.69a8,8,0,0,0,2.4-5.5c0-2.36-1.43-3.45-3.2-2.42a7.64,7.64,0,0,0-3.2,6.11c0,2,1,3.05,2.4,2.73v7.57l8.64,6.73v7.39a11.61,11.61,0,0,0-3.88,8.37c0,3.45,2.1,5,4.68,3.54s4.68-5.49,4.68-8.94c0-3.08-1.68-4.66-3.88-3.9V216.37l9-17.43v-8.09l2-1.17v-7.54Z" style="fill:#fff"></path></g></g></svg>
