<?xml version="1.0" standalone="no"?>
<!DOCTYPE svg PUBLIC "-//W3C//DTD SVG 20010904//EN"
 "http://www.w3.org/TR/2001/REC-SVG-20010904/DTD/svg10.dtd">
<svg version="1.0" xmlns="http://www.w3.org/2000/svg"
 width="512.000000pt" height="512.000000pt" viewBox="0 0 512.000000 512.000000"
 preserveAspectRatio="xMidYMid meet">

<g transform="translate(0.000000,512.000000) scale(0.100000,-0.100000)"
fill="#000000" stroke="none">
<path d="M4061 4834 c-25 -9 -61 -26 -80 -39 -20 -13 -540 -527 -1156 -1144
-875 -875 -1123 -1129 -1133 -1158 -20 -56 -90 -721 -81 -762 17 -74 79 -123
157 -123 81 1 705 73 735 86 15 6 535 519 1156 1139 946 947 1133 1138 1157
1185 26 51 29 67 29 157 0 155 -13 177 -248 413 -231 232 -267 255 -407 259
-58 2 -99 -2 -129 -13z m307 -467 c122 -122 162 -168 162 -187 0 -19 -43 -68
-177 -202 l-178 -178 -187 187 -188 188 177 177 c137 137 184 178 203 178 19
0 64 -38 188 -163z m-1210 -1584 l-793 -791 -203 -23 c-111 -12 -205 -19 -209
-16 -3 4 4 98 16 209 l23 203 791 792 792 793 187 -187 188 -188 -792 -792z"/>
<path d="M770 4419 c-233 -34 -425 -207 -484 -436 -14 -54 -16 -237 -16 -1631
0 -1095 3 -1587 11 -1624 34 -164 159 -324 312 -397 45 -21 106 -44 135 -50
37 -8 528 -11 1620 -11 1738 0 1630 -4 1765 67 135 71 234 188 285 338 l27 80
0 925 0 925 -24 38 c-61 99 -193 101 -265 3 -21 -27 -21 -38 -26 -940 l-5
-912 -30 -59 c-34 -66 -94 -118 -154 -135 -26 -7 -544 -9 -1592 -8 -1479 3
-1556 4 -1590 21 -47 23 -103 79 -126 126 -17 34 -18 111 -21 1590 -1 1048 1
1566 8 1592 17 60 69 120 135 154 l59 30 805 5 c617 4 811 8 828 17 57 33 91
117 74 181 -13 46 -65 99 -112 112 -41 12 -1538 11 -1619 -1z"/>
</g>
</svg>
