<?xml version="1.0" standalone="no"?>
<!DOCTYPE svg PUBLIC "-//W3C//DTD SVG 20010904//EN"
 "http://www.w3.org/TR/2001/REC-SVG-20010904/DTD/svg10.dtd">
<svg version="1.0" xmlns="http://www.w3.org/2000/svg"
 width="512.000000pt" height="512.000000pt" viewBox="0 0 512.000000 512.000000"
 preserveAspectRatio="xMidYMid meet">

<g transform="translate(0.000000,512.000000) scale(0.100000,-0.100000)"
fill="#000000" stroke="none">
<path d="M2306 4678 c-716 -81 -1365 -551 -1677 -1214 -195 -413 -250 -901
-153 -1354 86 -402 282 -760 578 -1056 510 -510 1223 -724 1936 -583 805 160
1471 813 1650 1619 65 289 67 651 5 915 -21 92 -54 138 -122 171 -45 23 -62
26 -109 21 -67 -7 -123 -40 -160 -96 -36 -55 -39 -100 -16 -242 39 -235 36
-435 -8 -645 -192 -920 -1099 -1516 -2017 -1324 -508 106 -946 443 -1178 908
-387 773 -132 1717 592 2189 422 276 935 350 1422 207 131 -39 169 -41 226
-15 147 67 173 257 50 359 -58 47 -279 109 -491 137 -126 16 -398 18 -528 3z"/>
<path d="M4205 4258 c-35 -9 -159 -129 -947 -916 l-908 -907 -257 257 c-142
140 -271 262 -288 271 -87 42 -176 27 -245 -43 -75 -74 -87 -165 -35 -255 13
-22 176 -191 362 -376 283 -282 346 -339 385 -354 54 -20 115 -17 169 9 20 9
445 427 1025 1009 930 931 992 995 1004 1040 44 163 -101 308 -265 265z"/>
</g>
</svg>
