<?xml version="1.0" standalone="no"?>
<!DOCTYPE svg PUBLIC "-//W3C//DTD SVG 20010904//EN"
 "http://www.w3.org/TR/2001/REC-SVG-20010904/DTD/svg10.dtd">
<svg version="1.0" xmlns="http://www.w3.org/2000/svg"
 width="500.000000pt" height="500.000000pt" viewBox="0 0 500.000000 500.000000"
 preserveAspectRatio="xMidYMid meet">

<g transform="translate(0.000000,500.000000) scale(0.100000,-0.100000)"
fill="#000000" stroke="none">
<path d="M3047 3639 c-68 -16 -184 -89 -172 -109 2 -4 -6 -13 -19 -19 -25 -14
-126 -203 -126 -237 0 -11 -3 -24 -7 -28 -4 -4 -8 -23 -10 -44 -9 -109 -9
-122 1 -122 6 0 5 -4 -3 -9 -10 -7 -11 -16 -3 -42 6 -19 21 -74 33 -124 12
-49 29 -98 37 -107 8 -10 12 -24 9 -33 -4 -8 -2 -15 3 -15 6 0 10 -5 10 -11 0
-6 9 -24 21 -40 11 -16 18 -29 15 -29 -3 0 1 -10 7 -22 22 -40 116 -187 127
-198 16 -16 70 -90 70 -96 0 -4 14 -20 30 -36 17 -15 30 -34 30 -41 0 -6 14
-21 30 -32 16 -11 30 -25 30 -31 0 -21 132 -147 157 -150 14 -2 22 0 19 3 -3
4 25 14 64 24 126 32 472 212 467 243 -1 5 21 25 48 43 28 18 75 58 106 88 31
30 61 55 67 55 7 0 12 5 12 11 0 6 20 35 45 63 25 29 45 58 45 65 0 6 7 11 16
11 8 0 13 4 10 8 -3 5 5 24 18 43 13 19 23 36 23 39 1 3 8 22 17 44 9 21 16
44 16 50 0 7 5 17 12 24 7 7 11 37 10 71 -1 33 3 63 9 66 7 5 7 11 -1 20 -14
17 -22 51 -21 94 0 18 -6 46 -15 63 -8 16 -13 35 -11 42 3 6 -8 31 -24 54 -16
24 -29 46 -29 50 0 19 -61 64 -118 86 -66 26 -102 27 -197 6 -48 -11 -80 -22
-117 -41 -10 -5 -24 -9 -32 -9 -7 0 -24 -8 -37 -19 -13 -10 -35 -22 -47 -26
-13 -4 -43 -20 -67 -36 -24 -16 -47 -29 -53 -29 -6 0 -12 -6 -15 -12 -2 -7 -8
0 -12 16 -23 88 -180 266 -290 331 -48 28 -130 51 -119 34 7 -11 -9 -12 -21
-1 -6 5 -27 5 -48 1z m1003 -408 c0 -20 -13 -41 -25 -41 -12 0 -25 21 -25 41
0 5 11 9 25 9 14 0 25 -4 25 -9z m59 -18 c19 -19 35 -53 32 -67 -1 -4 3 -13 8
-20 5 -6 9 -52 8 -101 -2 -85 -5 -95 -51 -190 -41 -83 -62 -112 -128 -177 -43
-43 -82 -78 -87 -78 -16 0 -20 28 -8 54 7 14 17 24 24 22 15 -6 96 81 121 130
43 85 94 294 72 294 -5 0 -10 8 -10 18 -1 9 -9 35 -19 57 -29 59 -3 97 38 58z"/>
<path d="M1344 3599 c-68 -9 -156 -38 -149 -50 4 -5 -1 -6 -9 -3 -9 3 -31 -4
-51 -16 -19 -12 -35 -18 -35 -13 0 4 -4 3 -8 -2 -4 -6 -18 -15 -32 -21 -79
-34 -119 -58 -123 -75 -3 -10 -13 -22 -24 -25 -10 -4 -28 -16 -40 -27 l-22
-19 45 -34 c68 -53 143 -92 209 -109 118 -31 326 -24 430 16 27 10 58 19 67
19 9 0 23 6 30 13 12 11 28 16 66 19 6 1 12 5 12 10 0 4 8 8 18 8 9 1 35 9 57
20 22 11 46 19 53 20 7 0 10 5 7 10 -3 6 2 10 12 10 10 0 27 7 37 15 19 15 19
16 -15 51 -139 146 -329 211 -535 183z"/>
</g>
</svg>
