<?xml version="1.0" standalone="no"?>
<!DOCTYPE svg PUBLIC "-//W3C//DTD SVG 20010904//EN"
 "http://www.w3.org/TR/2001/REC-SVG-20010904/DTD/svg10.dtd">
<svg version="1.0" xmlns="http://www.w3.org/2000/svg"
 width="500.000000pt" height="500.000000pt" viewBox="0 0 500.000000 500.000000"
 preserveAspectRatio="xMidYMid meet">

<g transform="translate(0.000000,500.000000) scale(0.100000,-0.100000)"
fill="#000000" stroke="none">
<path d="M2182 4839 c-84 -16 -121 -58 -208 -232 -49 -99 -70 -130 -132 -193
-41 -41 -78 -74 -82 -74 -6 0 -59 -38 -97 -70 -7 -5 -15 -10 -18 -10 -3 0 -22
-11 -43 -25 -20 -13 -47 -26 -60 -28 -12 -2 -28 -9 -34 -15 -7 -7 -20 -12 -29
-12 -9 0 -19 -7 -23 -15 -3 -8 -10 -15 -16 -15 -6 0 -9 4 -5 9 3 6 -21 -3 -52
-19 -32 -17 -72 -30 -90 -30 -17 0 -35 -4 -38 -10 -3 -5 -18 -10 -33 -10 -15
0 -46 -9 -67 -20 -22 -11 -46 -18 -53 -15 -7 3 -33 0 -58 -6 l-44 -11 17 -29
c34 -57 89 -98 226 -167 135 -69 283 -124 382 -142 28 -5 68 -13 90 -18 22 -6
56 -13 75 -15 19 -3 67 -10 105 -16 106 -16 195 -25 248 -25 26 -1 47 -4 47
-8 0 -3 24 -5 53 -4 28 2 61 -2 71 -7 11 -5 56 -11 100 -13 45 -2 83 -4 86 -5
10 -4 97 -7 341 -15 224 -6 398 2 494 23 11 2 34 6 50 8 87 11 234 50 245 65
3 4 13 7 22 7 26 0 98 25 98 35 0 4 9 8 20 8 11 0 20 5 20 12 0 6 3 9 6 5 3
-3 23 3 42 14 20 10 42 19 49 19 17 0 91 38 129 67 17 13 36 23 42 23 7 0 11
5 10 11 -2 6 11 16 27 22 30 10 65 35 65 46 0 3 -21 7 -48 9 -199 10 -437 46
-608 91 -79 20 -82 20 -175 -45 -24 -17 -60 -39 -79 -49 -19 -10 -39 -24 -43
-31 -4 -8 -15 -14 -23 -14 -9 0 -30 -11 -47 -24 -37 -27 -26 -25 -177 -29 -63
-2 -126 1 -140 6 -14 6 -32 11 -40 12 -99 15 -185 65 -268 154 -58 62 -75 102
-76 186 0 59 4 79 28 125 35 67 127 160 192 194 84 43 83 41 40 81 -21 19 -51
42 -66 50 -16 8 -33 21 -37 28 -11 17 -168 110 -218 129 -22 8 -58 18 -80 22
-22 4 -47 9 -55 10 -8 2 -34 0 -58 -5z"/>
<path d="M3011 4619 c-24 -5 -50 -14 -57 -20 -8 -7 -17 -9 -21 -5 -3 3 -13 -3
-20 -14 -15 -21 -95 -63 -119 -63 -8 0 -14 -4 -14 -9 0 -4 -8 -8 -17 -8 -19
-1 -64 -30 -47 -30 5 -1 -4 -7 -21 -14 -41 -18 -101 -81 -125 -131 -37 -76
-21 -146 46 -204 47 -41 99 -64 128 -58 12 3 30 1 41 -4 16 -7 14 -8 -10 -4
-23 4 -26 3 -14 -5 28 -17 217 -19 289 -3 36 8 72 16 80 17 8 1 25 8 37 14 12
7 29 12 37 12 9 0 16 4 16 8 0 9 81 48 92 44 4 -1 15 10 25 24 10 14 27 37 38
52 27 36 33 133 11 167 -9 13 -16 29 -16 35 0 20 -93 117 -122 126 -10 3 -18
10 -18 15 0 5 -6 9 -14 9 -7 0 -19 6 -25 14 -10 12 -44 23 -121 40 -8 2 -35 0
-59 -5z"/>
<path d="M3701 4071 c-11 -7 -9 -10 8 -16 24 -7 44 2 36 16 -8 11 -26 11 -44
0z"/>
<path d="M1205 3680 c-7 -12 47 -40 79 -40 34 0 41 16 14 34 -25 18 -83 21
-93 6z"/>
<path d="M3895 3630 c-18 -20 -17 -20 22 -20 46 0 58 8 42 27 -16 19 -43 16
-64 -7z"/>
<path d="M1863 3513 c-17 -2 -34 -11 -37 -19 -4 -11 8 -14 65 -14 62 0 70 2
67 18 -3 18 -35 23 -95 15z"/>
<path d="M1505 3490 c3 -5 17 -10 30 -10 13 0 27 5 30 10 4 6 -8 10 -30 10
-22 0 -34 -4 -30 -10z"/>
<path d="M2278 3469 c-30 -17 -20 -29 23 -29 33 0 40 3 37 18 -4 20 -36 26
-60 11z"/>
<path d="M2151 3381 c-11 -7 -9 -10 8 -16 24 -7 44 2 36 16 -8 11 -26 11 -44
0z"/>
<path d="M2280 2036 c-30 -7 -78 -24 -105 -38 -98 -51 -237 -169 -269 -228 -7
-14 -22 -41 -32 -60 -52 -92 -65 -224 -31 -312 21 -54 31 -57 108 -34 125 38
210 115 270 241 21 44 41 94 45 110 8 35 71 130 105 161 42 37 133 94 151 94
24 0 23 12 -4 37 -45 41 -134 52 -238 29z"/>
<path d="M2545 1943 c-27 -7 -114 -64 -145 -95 -14 -14 -36 -42 -50 -62 -14
-21 -30 -43 -36 -49 -10 -12 -38 -79 -78 -189 -20 -53 -83 -130 -135 -162 -50
-31 -147 -68 -176 -68 -20 0 -23 -3 -14 -14 29 -35 159 -87 159 -64 0 4 28 10
63 13 74 6 173 48 237 101 25 21 65 54 89 74 24 21 47 39 51 42 8 5 44 65 66
110 52 106 56 132 43 242 -8 65 -32 129 -47 127 -4 -1 -16 -4 -27 -6z"/>
</g>
</svg>
