<!DOCTYPE svg PUBLIC "-//W3C//DTD SVG 1.1//EN" "http://www.w3.org/Graphics/SVG/1.1/DTD/svg11.dtd">
<!-- Uploaded to: SVG Repo, www.svgrepo.com, Transformed by: SVG Repo Mixer Tools -->
<svg fill="#2A2C41" width="800px" height="800px" viewBox="0 0 16 16" xmlns="http://www.w3.org/2000/svg" transform="rotate(90)">
<g id="SVGRepo_bgCarrier" stroke-width="0"/>
<g id="SVGRepo_tracerCarrier" stroke-linecap="round" stroke-linejoin="round"/>
<g id="SVGRepo_iconCarrier">
<path d="M8 2.5a1.22 1.22 0 0 1 1.25 1.17A1.21 1.21 0 0 1 8 4.84a1.21 1.21 0 0 1-1.25-1.17A1.22 1.22 0 0 1 8 2.5zm0 8.66a1.17 1.17 0 1 1-1.25 1.17A1.21 1.21 0 0 1 8 11.16zm0-4.33a1.17 1.17 0 1 1 0 2.34 1.17 1.17 0 1 1 0-2.34z"/>
</g>
</svg>